<?xml version="1.0" encoding="UTF-8"?>
<!DOCTYPE svg PUBLIC "-//W3C//DTD SVG 1.1//EN" "http://www.w3.org/Graphics/SVG/1.1/DTD/svg11.dtd">
<!-- Creator: CorelDRAW 2020 (64-Bit) -->
<svg xmlns="http://www.w3.org/2000/svg" xml:space="preserve" width="521.332mm" height="135.467mm" version="1.1" style="shape-rendering:geometricPrecision; text-rendering:geometricPrecision; image-rendering:optimizeQuality; fill-rule:evenodd; clip-rule:evenodd"
viewBox="0 0 11590.3 3011.71"
 xmlns:xlink="http://www.w3.org/1999/xlink"
 xmlns:xodm="http://www.corel.com/coreldraw/odm/2003">
 <defs>
  <style type="text/css">
   <![CDATA[
    .fil2 {fill:#373435}
    .fil0 {fill:#FFF212}
    .fil1 {fill:#373435;fill-rule:nonzero}
   ]]>
  </style>
 </defs>
 <g id="Capa_x0020_1">
  <metadata id="CorelCorpID_0Corel-Layer"/>
  <rect class="fil0" width="3019.55" height="3011.71" rx="807.83" ry="807.83"/>
  <path class="fil1" d="M9137.2 1720.91c17.93,166.39 193.64,275.1 348.27,275.1 163.33,0 280.31,-46.93 343.43,-149.7l221.26 125.49c-100.49,185.05 -329.93,271.7 -568.53,271.7 -90.54,0 -173.91,-15.84 -250.12,-47.91 -76.21,-32.07 -144.49,-79.6 -205.23,-142.23 -57.34,-59.61 -101.86,-128.65 -133.55,-207.11 -31.69,-78.09 -47.53,-158.83 -47.53,-241.07 0,-84.88 14.71,-164.48 43.76,-239.18 29.05,-74.7 72.06,-141.85 128.64,-201.45 61.87,-65.64 132.04,-116.2 210.13,-151.28 78.09,-35.46 158.45,-53.19 241.82,-53.19 105.25,0 203.72,23.77 295.02,71.68 91.29,47.91 169.01,115.44 233.14,202.21 39.24,52.44 67.91,110.91 86.77,175.8 18.86,64.51 28.29,138.83 28.29,222.96 0,6.41 -0.39,16.6 -1.13,30.18 -0.76,13.96 -1.13,51.22 -1.13,58.01l-973.32 0zm704.33 -222.87c-25.82,-94.53 -69.38,-166.64 -130.28,-215.88 -60.91,-49.69 -137.95,-74.31 -230.72,-74.31 -80.27,0 -152.47,26.82 -216.2,80.02 -63.73,53.2 -106.49,123.11 -128.67,210.17l705.87 0z"/>
  <path class="fil1" d="M7776.52 519.1l0 629.21c42.83,-55.08 108.42,-110.76 163.93,-137.31 55.69,-26.64 119.07,-39.61 190.59,-39.61 157.98,0 279.41,46.78 363.9,139.96 84.49,93.18 126.54,227.49 126.54,402.53l0 697.92 -267.28 0 0 -536.46c0,-166.37 10.15,-296.88 -56.2,-370.81 -47.33,-52.74 -135.91,-88.37 -232.59,-88.37 -98.24,0 -190.55,59.67 -233.38,126.44 -42.83,66.77 -53.67,109.52 -53.67,349.19l0 520.99 -274.52 -0.98 0 -1707.41 272.66 14.71z"/>
  <path class="fil1" d="M6530.66 1829.48c31.28,88.43 130.6,174.96 239.76,176.34 133.89,1.69 236.25,-41.88 237.8,-118.49 1.75,-86.88 -78.38,-145.45 -207.84,-169.2 -132.01,-24.22 -263.52,-83.75 -301.43,-108.42 -55.51,-36.97 -96.55,-78.09 -122.68,-123.36 -26.59,-45.27 -39.65,-97.33 -39.65,-155.43 0,-102.61 44.31,-189.38 132.94,-259.93 89.09,-70.92 196.38,-106.39 323.25,-106.39 133.87,0 239.38,31.2 317.18,93.94 56.29,45.39 108.6,96.21 136.15,163.39l-223.76 131.76c-32.35,-108.61 -151.44,-149.01 -236.85,-149.01 -92.98,0 -168.96,44.04 -166.55,124.72 1.96,65.56 79.34,106.35 214.67,151.81 99.91,33.55 252.07,48.18 359.27,157.52 50.14,51.14 72.86,120.76 72.86,212.81 0,113.18 -36.8,215.94 -131.48,289.88 -94.69,73.94 -224.89,102.09 -368.55,102.09 -145.06,0 -261.68,-38.86 -350.77,-116.95 -53.05,-46.74 -91.73,-103.22 -116.03,-169.59l231.7 -127.47z"/>
  <path class="fil1" d="M5789.3 2211.8l0 -149.39c-100.14,133.32 -243.23,170.05 -386.26,176.56 -182.93,8.32 -336.24,-61.49 -458.97,-184.1 -122.72,-122.61 -184.28,-275.02 -184.28,-456.86 0,-85.64 15.39,-166.75 46.16,-243.33 30.78,-76.58 74.64,-144.11 131.96,-202.21 61.56,-64.13 129.65,-111.29 204.67,-141.85 75.4,-30.56 159.76,-50.53 253.53,-46.02 149.45,7.18 292.09,52.52 389.72,178.06l0 -146.37 282.77 0 0 1215.52 -279.3 0zm-759.4 -611.3c0,108.37 37.49,199.14 112.88,272.32 74.97,73.17 166.61,109.56 274.9,109.56 98.3,0 184.52,-36.79 259.49,-109.96 74.56,-73.58 112.04,-159.56 112.04,-257.92 0,-104.77 -37.48,-194.74 -112.88,-269.92 -74.97,-75.58 -162.86,-113.16 -263.65,-113.16 -105.79,0 -195.76,35.59 -270.74,107.17 -74.56,71.58 -112.04,158.75 -112.04,261.92z"/>
  <path class="fil1" d="M4406.22 1419.03c-59.3,-110.69 -174.08,-190.84 -329.65,-190.84 -200.38,0 -368.75,161.65 -368.75,374.72 0,228.35 199.3,382.13 373.55,382.13 156.32,0 266.38,-87.78 332.14,-203.49l222.69 127.77c-39.9,82.66 -94.66,151.61 -164.37,207.03 -106.76,84.88 -236.54,127.13 -388.95,127.13 -89.79,0 -172.78,-15.84 -249.37,-47.91 -76.58,-32.07 -146,-79.6 -207.87,-142.23 -57.34,-58.85 -102.24,-127.89 -134.68,-207.11 -32.45,-78.85 -48.67,-159.58 -48.67,-241.07 0,-85.64 14.71,-165.24 44.14,-239.93 29.43,-74.32 72.81,-141.1 130.53,-200.7 63.38,-67.15 134.68,-118.08 214.28,-152.41 79.6,-34.71 164.86,-52.06 256.16,-52.06 148.64,0 277.66,42.25 386.69,127.13 71.79,55.64 127.39,124.05 166.9,205.1l-234.77 126.73z"/>
  <path class="fil1" d="M11311 2211.8l0 -149.39c-100.14,133.32 -243.23,170.05 -386.26,176.56 -182.93,8.32 -336.24,-61.49 -458.97,-184.1 -122.72,-122.61 -184.28,-275.02 -184.28,-456.86 0,-85.64 15.39,-166.75 46.16,-243.33 30.78,-76.58 74.64,-144.11 131.96,-202.21 61.56,-64.13 129.65,-111.29 204.67,-141.85 75.4,-30.56 159.76,-50.53 253.53,-46.02 149.45,7.18 292.09,52.52 389.72,178.06l0 -146.37 282.77 0 0 1215.52 -279.3 0zm-759.4 -611.3c0,108.37 37.49,199.14 112.88,272.32 74.97,73.17 166.61,109.56 274.9,109.56 98.3,0 184.52,-36.79 259.49,-109.96 74.56,-73.58 112.04,-159.56 112.04,-257.92 0,-104.77 -37.48,-194.74 -112.88,-269.92 -74.97,-75.58 -162.86,-113.16 -263.65,-113.16 -105.79,0 -195.76,35.59 -270.74,107.17 -74.56,71.58 -112.04,158.75 -112.04,261.92z"/>
  <path class="fil2" d="M2410.21 1521.54c-9.08,483.77 -404.02,873.16 -889.96,873.16 -491.63,0 -890.18,-398.55 -890.18,-890.18 0,-488.13 392.91,-884.43 879.71,-890.05l0 445.75c-240.61,5.56 -433.96,202.35 -433.96,444.29 0,245.45 198.98,444.43 444.43,444.43 239.75,0 435.12,-189.85 444.07,-427.41l445.89 0z"/>
 </g>
</svg>
