<?xml version="1.0" encoding="UTF-8"?>
<svg version="1.1" xmlns="http://www.w3.org/2000/svg" width="564" height="591">
<path d="M0 0 C186.12 0 372.24 0 564 0 C564 195.03 564 390.06 564 591 C377.88 591 191.76 591 0 591 C0 395.97 0 200.94 0 0 Z " fill="#FEF112" transform="translate(0,0)"/>
<path d="M0 0 C58.74 0 117.48 0 178 0 C178 194.04 178 388.08 178 588 C-7.46 588 -192.92 588 -384 588 C-384 521.34 -384 454.68 -384 386 C-383.67 386 -383.34 386 -383 386 C-382.90203125 386.81339844 -382.8040625 387.62679688 -382.703125 388.46484375 C-380.85409725 402.63540987 -378.00149265 415.96429031 -372 429 C-371.55914062 430.09248047 -371.55914062 430.09248047 -371.109375 431.20703125 C-366.15603259 443.34272014 -358.61953469 454.21120669 -350 464 C-349.26910156 464.85207031 -348.53820312 465.70414062 -347.78515625 466.58203125 C-325.76348513 491.77729996 -294.33574847 507.60264236 -261 511 C-257.45215331 511.14291252 -253.907682 511.13929895 -250.35731506 511.13371277 C-248.76656643 511.1371111 -248.76656643 511.1371111 -247.14368147 511.14057809 C-243.5958579 511.14689985 -240.04807271 511.14608988 -236.50024414 511.14526367 C-233.95377554 511.1482564 -231.40730739 511.15165919 -228.86083984 511.15544128 C-222.6634262 511.16335871 -216.46602657 511.16649559 -210.26860834 511.16705366 C-205.22552815 511.16752968 -200.18245108 511.16958874 -195.13937187 511.17275429 C-180.81868302 511.18155938 -166.49800164 511.1861742 -152.17731006 511.18542381 C-151.40586561 511.18538386 -150.63442116 511.1853439 -149.83959961 511.18530273 C-148.68100714 511.18524141 -148.68100714 511.18524141 -147.49900877 511.18517885 C-135.00075442 511.18477301 -122.5025303 511.19432737 -110.00428469 511.2084411 C-97.1489626 511.22284254 -84.29365522 511.22970913 -71.43832487 511.22884732 C-64.23015691 511.22851653 -57.02202059 511.23121161 -49.81385994 511.24202538 C-43.02669853 511.25214268 -36.23961461 511.25175666 -29.45244598 511.24450874 C-26.97098378 511.24346797 -24.48951735 511.24579542 -22.00806236 511.2518692 C21.04717477 511.35036743 58.37817862 501.2146508 89.9375 470.4375 C101.6860425 458.6044221 109.76637781 444.92969924 117 430 C117.5259375 428.93007813 118.051875 427.86015625 118.59375 426.7578125 C122.12352243 418.98800856 123.89604918 410.81880994 125.51574308 402.47677648 C125.83756397 400.830794 126.17082421 399.18700535 126.51569146 397.54569685 C127.85666455 390.8369258 128.28653266 384.44758772 128.26069641 377.61727905 C128.26452196 376.52548297 128.26834751 375.43368688 128.27228898 374.30880606 C128.28254301 370.67896514 128.27864126 367.04928466 128.2746582 363.41943359 C128.27900896 360.80503189 128.28419333 358.19063146 128.29014587 355.57623291 C128.30285146 349.22795942 128.30469163 342.8797283 128.30234561 336.53144424 C128.30055707 331.36546718 128.30232355 326.19950291 128.30657005 321.03352737 C128.30716524 320.29612924 128.30776043 319.55873111 128.30837366 318.79898757 C128.30958552 317.30054588 128.31079965 315.80210419 128.31201603 314.30366249 C128.32287635 300.27099145 128.32073667 286.23834448 128.31463119 272.2056721 C128.30946753 259.40117017 128.32070559 246.59674445 128.33972941 233.79225759 C128.35915902 220.61248545 128.36735459 207.43274925 128.36360615 194.25296271 C128.36170133 186.86651643 128.36411079 179.48013492 128.37832069 172.09370041 C128.39156089 165.14147894 128.38890521 158.18941149 128.37590981 151.23719025 C128.37355564 148.69648053 128.37623669 146.15575997 128.38453293 143.61506271 C128.5044685 104.00518166 116.8427126 68.89844494 88.8125 40.25 C74.8289529 26.42517238 57.54167292 15.57738317 39 9 C38.10410156 8.66355469 37.20820313 8.32710937 36.28515625 7.98046875 C24.59602224 3.79120864 12.3765175 1.76042163 0 1 C0 0.67 0 0.34 0 0 Z " fill="#FFFEFE" transform="translate(386,3)"/>
<path d="M0 0 C1.34264671 0.00401825 1.34264671 0.00401825 2.7124176 0.00811768 C3.39182907 0.01156189 4.07124054 0.0150061 4.77124023 0.01855469 C4.79436451 9.91044845 4.81215575 19.80233582 4.82305241 29.69425106 C4.82828105 34.28698109 4.83537835 38.87969269 4.84667969 43.47241211 C4.85750924 47.90089157 4.86351721 52.32935325 4.86611748 56.75784492 C4.86797161 58.45121096 4.87159198 60.14457598 4.87697029 61.83793449 C4.88418163 64.20146701 4.88523114 66.56492514 4.88476562 68.9284668 C4.8883609 69.63552765 4.89195618 70.3425885 4.8956604 71.07107544 C4.8852924 75.90450253 4.8852924 75.90450253 3.77124023 77.01855469 C1.89756562 77.12770078 0.02200326 77.20466008 -1.85375977 77.26855469 C-20.86784751 78.66084308 -37.3659275 88.37049138 -50.22875977 102.01855469 C-65.19011458 119.65880073 -69.9582686 139.38964235 -68.22875977 162.01855469 C-66.41781212 176.32653777 -60.18119855 188.87368192 -51.22875977 200.01855469 C-50.78274414 200.63988281 -50.33672852 201.26121094 -49.87719727 201.90136719 C-40.20702889 214.65649726 -21.8851219 223.7581817 -6.22875977 226.01855469 C-2.09925436 226.30779165 2.00779047 226.34355001 6.14624023 226.33105469 C7.7356543 226.35522461 7.7356543 226.35522461 9.35717773 226.37988281 C25.92198348 226.39003282 40.63901385 219.84203546 53.77124023 210.01855469 C54.33713867 209.44363281 54.90303711 208.86871094 55.48608398 208.27636719 C56.77124023 207.01855469 56.77124023 207.01855469 58.77124023 207.01855469 C59.03678711 206.426875 59.30233398 205.83519531 59.57592773 205.22558594 C60.80203207 202.96170049 62.09364139 201.52961399 63.89624023 199.70605469 C75.28407569 186.96025559 78.49685697 171.39047099 81.77124023 155.01855469 C106.52124023 155.01855469 131.27124023 155.01855469 156.77124023 155.01855469 C156.77124023 173.90285567 156.77124023 173.90285567 155.33374023 181.01855469 C155.16181152 181.88391846 154.98988281 182.74928223 154.81274414 183.64086914 C149.88072163 206.46519589 139.52247184 227.96186316 124.77124023 246.01855469 C124.35261719 246.54255859 123.93399414 247.0665625 123.50268555 247.60644531 C98.64135505 278.67850107 62.79083002 297.62483897 23.43530273 302.60839844 C-16.91402817 306.77065803 -56.40456493 296.06831772 -88.09985352 270.62011719 C-119.27001126 244.98030549 -139.97695625 209.71023432 -144.91967773 169.37939453 C-146.47793623 152.43548737 -146.59184942 134.53454247 -142.22875977 118.01855469 C-142.04071777 117.26171387 -141.85267578 116.50487305 -141.65893555 115.72509766 C-136.71025365 96.13902572 -128.14361504 78.30219023 -116.22875977 62.01855469 C-115.62032227 61.16777344 -115.01188477 60.31699219 -114.38500977 59.44042969 C-89.91872029 27.03332696 -52.15915196 6.49276166 -12.29125977 0.76855469 C-8.16405364 0.21889233 -4.15709928 -0.01616638 0 0 Z " fill="#373434" transform="translate(254.228759765625,106.9814453125)"/>
<path d="M0 0 C1.15165146 -0.00073013 2.30330292 -0.00146027 3.48985291 -0.00221252 C7.29408973 0.00126915 11.09710026 0.04016115 14.90112305 0.0793457 C17.53955924 0.08867168 20.17800408 0.0957888 22.81645203 0.1007843 C29.0497068 0.1163101 35.28252186 0.15732075 41.51558322 0.20753175 C48.61344625 0.26346514 55.71133055 0.29092164 62.80935919 0.31600893 C77.40657998 0.3682382 92.00345473 0.45615548 106.6003418 0.56762695 C106.6003418 0.89762695 106.6003418 1.22762695 106.6003418 1.56762695 C104.9297168 1.80545898 104.9297168 1.80545898 103.2253418 2.0480957 C89.63319966 4.0855677 76.79881584 7.03273014 64.6003418 13.56762695 C63.36541992 14.00977539 62.13049805 14.45192383 60.8581543 14.9074707 C56.57764604 16.48832906 52.82521758 18.57199772 48.9753418 21.00512695 C47.94546143 21.65384766 47.94546143 21.65384766 46.89477539 22.31567383 C39.54076013 27.0728606 33.02186343 32.63427928 26.6003418 38.56762695 C25.70702148 39.37844727 24.81370117 40.18926758 23.89331055 41.0246582 C0.97878431 62.78443666 -11.24778344 92.69057777 -15.3996582 123.56762695 C-15.7296582 123.56762695 -16.0596582 123.56762695 -16.3996582 123.56762695 C-16.51649016 108.26879952 -16.60464564 92.96999268 -16.65871906 77.67081928 C-16.68449443 70.56701553 -16.71963156 63.46348905 -16.77685547 56.35986328 C-16.832038 49.50637874 -16.861068 42.65318266 -16.87404442 35.79948997 C-16.88329372 33.18274586 -16.90135514 30.56601778 -16.92830849 27.94939613 C-16.96452562 24.2883438 -16.96960631 20.62848737 -16.96728516 16.96728516 C-16.98526154 15.88187439 -17.00323792 14.79646362 -17.02175903 13.67816162 C-16.99079845 9.17485961 -16.84379725 6.34164349 -14.57666016 2.390625 C-9.77492836 -0.36466058 -5.44568935 -0.09019054 0 0 Z " fill="#FEFEFD" transform="translate(18.399658203125,2.432373046875)"/>
<path d="M0 0 C186.12 0 372.24 0 564 0 C564 0.99 564 1.98 564 3 C562.82254406 3.00173625 561.64508812 3.0034725 560.4319517 3.00526136 C508.56097862 3.08181436 456.69000752 3.15959439 404.81904602 3.2436676 C403.64183156 3.24557512 403.64183156 3.24557512 402.44083499 3.24752118 C385.38644677 3.27516296 368.33205892 3.30302595 351.27767144 3.33111694 C342.91468793 3.34489061 334.55170434 3.35861538 326.1887207 3.37231445 C325.3564856 3.37367854 324.5242505 3.37504262 323.66679615 3.37644804 C296.67226139 3.42067078 269.6777229 3.46166184 242.6831806 3.50098413 C214.95202655 3.54139644 187.22087946 3.58505485 159.48973705 3.63282111 C155.5764946 3.63956006 151.66325209 3.64626175 147.75000954 3.65294075 C146.97979699 3.65425648 146.20958444 3.65557221 145.41603212 3.6569278 C132.99777652 3.67804552 120.57951828 3.69572242 108.16125566 3.71212531 C95.68880666 3.72867274 83.21636763 3.74881483 70.74393042 3.77266841 C63.98119431 3.78550153 57.21846606 3.7965803 50.4557209 3.80341911 C44.27328785 3.80970623 38.09088036 3.82051555 31.90846131 3.8350333 C29.66347267 3.83948676 27.4184799 3.84223226 25.17348703 3.84316199 C22.138301 3.84466035 19.10319008 3.85219533 16.06801891 3.8613348 C15.18227954 3.86031213 14.29654017 3.85928946 13.38396022 3.85823581 C10.00770868 3.8736701 7.22531787 3.92489404 4 5 C3.09068332 7.72795003 2.87360009 9.30714094 2.86938947 12.11080855 C2.86570876 12.95323266 2.86202805 13.79565677 2.85823581 14.66360888 C2.85925847 15.59106123 2.86028114 16.51851358 2.8613348 17.47407055 C2.85849258 18.46185394 2.85565036 19.44963733 2.85272202 20.46735355 C2.8443358 23.80947666 2.84310374 27.15156528 2.84178162 30.49369812 C2.83721894 32.90104674 2.83221935 35.30839457 2.82681805 37.71574146 C2.8160454 42.96632191 2.80838331 48.21689343 2.80341911 53.46748161 C2.79602083 61.27496419 2.78293949 69.08242992 2.76867336 76.88990259 C2.74483971 90.02206813 2.72564526 103.15423665 2.70907402 116.28641319 C2.69264593 129.29319353 2.67416862 142.29996829 2.65294075 155.30674171 C2.65162314 156.11477567 2.65030554 156.92280962 2.648948 157.75532945 C2.64224613 161.85874881 2.63550751 165.96216811 2.62875474 170.06558738 C2.58096271 199.14731651 2.53778603 228.22905085 2.49731445 257.31079102 C2.45798077 285.56730529 2.41656218 313.82381524 2.37231445 342.08032227 C2.37095192 342.95096228 2.36958939 343.8216023 2.36818558 344.71862535 C2.35450047 353.46176871 2.34077291 362.204912 2.32701423 370.94805524 C2.29898597 388.75962535 2.27124113 406.5711959 2.2436676 424.38276672 C2.2423994 425.2017549 2.2411312 426.02074307 2.23982458 426.86454906 C2.15513611 481.57635904 2.07707553 536.28817884 2 591 C1.34 591 0.68 591 0 591 C0 395.97 0 200.94 0 0 Z " fill="#535559" transform="translate(0,0)"/>
</svg>
