<!-- EFECTIVO -->

<?xml version="1.0" encoding="iso-8859-1"?>
<!-- Uploaded to: SVG Repo, www.svgrepo.com, Generator: SVG Repo Mixer Tools -->
<svg version="1.1" id="Layer_1" xmlns="http://www.w3.org/2000/svg" xmlns:xlink="http://www.w3.org/1999/xlink" 
	 viewBox="0 0 512 512" xml:space="preserve">
<rect x="10.228" y="79.425" style="fill:#82DCC7;" width="493.627" height="241.301"/>
<g>
	<rect x="10.228" y="320.723" style="fill:#74CBB4;" width="493.627" height="112.064"/>
	<ellipse style="fill:#74CBB4;" cx="257.041" cy="200.072" rx="65.531" ry="82.679"/>
</g>
<path d="M502.813,70.132H391.518c-5.073,0-9.187,4.113-9.187,9.187s4.113,9.187,9.187,9.187h50.742
	c3.993,26.429,24.937,47.373,51.367,51.367v120.195c-26.43,3.993-47.373,24.937-51.367,51.367H69.74
	c-3.993-26.43-24.936-47.373-51.367-51.367V139.872c26.43-3.993,47.373-24.937,51.367-51.367h286.869
	c5.073,0,9.187-4.113,9.187-9.187c0-5.073-4.113-9.187-9.187-9.187H9.187C4.113,70.132,0,74.245,0,79.318V320.62v112.062
	c0,5.073,4.113,9.187,9.187,9.187h493.627c5.073,0,9.187-4.113,9.187-9.187V320.62V79.318C512,74.245,507.887,70.132,502.813,70.132
	z M460.945,88.505h32.682v32.682C477.351,117.619,464.513,104.781,460.945,88.505z M493.627,278.751v32.682h-32.682
	C464.513,295.157,477.351,282.319,493.627,278.751z M51.055,311.433H18.373v-32.682C34.649,282.319,47.487,295.157,51.055,311.433z
	 M51.055,88.505c-3.568,16.276-16.406,29.114-32.682,32.682V88.505H51.055z M18.373,423.495v-18.978h81.455
	c5.073,0,9.187-4.113,9.187-9.187s-4.113-9.187-9.187-9.187H18.373v-18.986h355.828c5.073,0,9.187-4.113,9.187-9.187
	c0-5.073-4.113-9.187-9.187-9.187H18.373v-18.978h475.254v18.978h-92.478c-5.073,0-9.187,4.113-9.187,9.187
	c0,5.073,4.113,9.187,9.187,9.187h92.478v18.986H129.225c-5.073,0-9.187,4.113-9.187,9.187s4.113,9.187,9.187,9.187h364.402v18.978
	H18.373z"/>
<path d="M181.282,199.969c0,50.655,33.518,91.866,74.718,91.866s74.718-41.211,74.718-91.866S297.2,108.103,256,108.103
	S181.282,149.314,181.282,199.969z M312.344,199.969c0,40.524-25.277,73.493-56.344,73.493s-56.344-32.969-56.344-73.493
	s25.277-73.493,56.344-73.493S312.344,159.445,312.344,199.969z"/>
<path d="M463.617,177.921h-100.44c-5.073,0-9.187,4.113-9.187,9.187s4.113,9.187,9.187,9.187h100.44
	c5.073,0,9.187-4.113,9.187-9.187S468.691,177.921,463.617,177.921z"/>
<path d="M153.11,187.108c0-5.073-4.113-9.187-9.187-9.187H43.483c-5.073,0-9.187,4.113-9.187,9.187s4.113,9.187,9.187,9.187h100.44
	C148.997,196.294,153.11,192.181,153.11,187.108z"/>
<path d="M463.617,212.524h-55.12c-5.073,0-9.187,4.113-9.187,9.187s4.113,9.187,9.187,9.187h55.12c5.073,0,9.187-4.113,9.187-9.187
	S468.691,212.524,463.617,212.524z"/>
<path d="M43.483,212.524c-5.073,0-9.187,4.113-9.187,9.187s4.113,9.187,9.187,9.187h55.12c5.073,0,9.187-4.113,9.187-9.187
	s-4.113-9.187-9.187-9.187H43.483z"/>
<path d="M246.813,143.933v11.189h-20.217c-5.073,0-9.187,4.113-9.187,9.187v35.659c0,5.073,4.113,9.187,9.187,9.187h49.619v17.286
	h-49.619c-5.073,0-9.187,4.113-9.187,9.187c0,5.073,4.113,9.187,9.187,9.187h20.217v11.189c0,5.073,4.113,9.187,9.187,9.187
	c5.073,0,9.187-4.113,9.187-9.187v-11.189h20.215c5.073,0,9.187-4.113,9.187-9.187v-35.659c0-5.073-4.113-9.187-9.187-9.187h-49.619
	v-17.286h49.619c5.073,0,9.187-4.113,9.187-9.187c0-5.073-4.113-9.187-9.187-9.187h-20.215v-11.189c0-5.073-4.113-9.187-9.187-9.187
	C250.927,134.747,246.813,138.86,246.813,143.933z"/>
</svg>

<!-- PAGO MOVIL -->

<svg width="200" height="200" viewBox="0 0 200 200" xmlns="http://www.w3.org/2000/svg">
  <!-- Phone Left -->
  <rect x="10" y="20" width="70" height="130" rx="10" ry="10" fill="#69d3cc" stroke="#3b65d8" stroke-width="4"/>
  <rect x="35" y="30" width="20" height="4" rx="2" fill="#3b65d8"/>
  <circle cx="45" cy="160" r="3" fill="#3b65d8"/>

  <!-- Phone Right -->
  <rect x="120" y="20" width="70" height="130" rx="10" ry="10" fill="#f9a8a8" stroke="#3b65d8" stroke-width="4"/>
  <rect x="145" y="30" width="20" height="4" rx="2" fill="#3b65d8"/>
  <circle cx="155" cy="160" r="3" fill="#3b65d8"/>

  <!-- Bank Icon (shared) -->
  <g stroke="#3b65d8" stroke-width="2" fill="none">
    <polygon points="45,60 30,70 60,70" fill="#fff"/>
    <rect x="33" y="70" width="24" height="20" fill="#fff"/>
    <circle cx="45" cy="80" r="6" fill="#fcd34d"/>
    <text x="41" y="84" font-size="7" font-weight="bold" fill="#3b65d8">$</text>
    <line x1="30" y1="90" x2="60" y2="90"/>
  </g>

  <g stroke="#3b65d8" stroke-width="2" fill="none" transform="translate(110,0)">
    <polygon points="45,60 30,70 60,70" fill="#fff"/>
    <rect x="33" y="70" width="24" height="20" fill="#fff"/>
    <circle cx="45" cy="80" r="6" fill="#fcd34d"/>
    <text x="41" y="84" font-size="7" font-weight="bold" fill="#3b65d8">$</text>
    <line x1="30" y1="90" x2="60" y2="90"/>
  </g>

  <!-- Arrows -->
  <path d="M80 50 C 100 30, 130 30, 130 50" stroke="#00b0d7" stroke-width="4" fill="none" marker-end="url(#arrowhead)"/>
  <path d="M120 120 C 100 140, 70 140, 70 120" stroke="#ea5b8c" stroke-width="4" fill="none" marker-end="url(#arrowhead)"/>

  <defs>
    <marker id="arrowhead" markerWidth="10" markerHeight="7"
      refX="0" refY="3.5" orient="auto">
      <polygon points="0 0, 10 3.5, 0 7" fill="#3b65d8"/>
    </marker>
  </defs>
</svg>


<!-- PAYPAL -->

<svg xmlns="http://www.w3.org/2000/svg" x="0px" y="0px" width="100" height="100" viewBox="0 0 48 48">
<path fill="#0d62ab" d="M18.7,13.767l0.005,0.002C18.809,13.326,19.187,13,19.66,13h13.472c0.017,0,0.034-0.007,0.051-0.006	C32.896,8.215,28.887,6,25.35,6H11.878c-0.474,0-0.852,0.335-0.955,0.777l-0.005-0.002L5.029,33.813l0.013,0.001	c-0.014,0.064-0.039,0.125-0.039,0.194c0,0.553,0.447,0.991,1,0.991h8.071L18.7,13.767z"></path><path fill="#199be2" d="M33.183,12.994c0.053,0.876-0.005,1.829-0.229,2.882c-1.281,5.995-5.912,9.115-11.635,9.115	c0,0-3.47,0-4.313,0c-0.521,0-0.767,0.306-0.88,0.54l-1.74,8.049l-0.305,1.429h-0.006l-1.263,5.796l0.013,0.001	c-0.014,0.064-0.039,0.125-0.039,0.194c0,0.553,0.447,1,1,1h7.333l0.013-0.01c0.472-0.007,0.847-0.344,0.945-0.788l0.018-0.015	l1.812-8.416c0,0,0.126-0.803,0.97-0.803s4.178,0,4.178,0c5.723,0,10.401-3.106,11.683-9.102	C42.18,16.106,37.358,13.019,33.183,12.994z"></path><path fill="#006fc4" d="M19.66,13c-0.474,0-0.852,0.326-0.955,0.769L18.7,13.767l-2.575,11.765	c0.113-0.234,0.359-0.54,0.88-0.54c0.844,0,4.235,0,4.235,0c5.723,0,10.432-3.12,11.713-9.115c0.225-1.053,0.282-2.006,0.229-2.882	C33.166,12.993,33.148,13,33.132,13H19.66z"></path>
</svg>

<!-- BINANCE -->

<svg xmlns="http://www.w3.org/2000/svg" x="0px" y="0px" width="100" height="100" viewBox="0 0 64 64">
<path fill="orange" d="M33.721,25.702l2.583,2.581c0.944,0.944,0.944,2.477,0,3.421	l-2.587,2.587c-0.944,0.944-2.477,0.944-3.421,0l-2.583-2.583c-0.944-0.944-0.944-2.477,0-3.421l2.587-2.585	C31.243,24.758,32.777,24.758,33.721,25.702z"></path><path fill="orange" d="M11.725,25.701l2.583,2.581c0.944,0.944,0.944,2.477,0,3.421	l-2.587,2.587c-0.944,0.944-2.477,0.944-3.421,0l-2.583-2.583c-0.944-0.944-0.944-2.477,0-3.421l2.587-2.585	C9.247,24.757,10.781,24.757,11.725,25.701z"></path><path fill="orange" d="M55.718,25.701l2.583,2.581c0.944,0.944,0.944,2.477,0,3.421	l-2.587,2.587c-0.944,0.944-2.477,0.944-3.421,0l-2.583-2.583c-0.944-0.944-0.944-2.477,0-3.421l2.587-2.585	C53.241,24.757,54.774,24.757,55.718,25.701z"></path><path fill="orange" d="M19.298,23.295l-2.581-2.583	c-0.944-0.943-0.944-2.479,0-3.421l13.58-13.584c0.944-0.945,2.477-0.945,3.421-0.001l13.583,13.576	c0.943,0.944,0.944,2.477,0,3.421l-2.587,2.588c-0.944,0.943-2.477,0.943-3.421-0.001l-9.284-9.292l-9.288,9.297	C21.777,24.239,20.243,24.241,19.298,23.295z"></path><path fill="orange" d="M19.297,36.701l-2.583,2.583	c-0.944,0.944-0.944,2.477,0,3.421l13.58,13.585c0.944,0.944,2.477,0.944,3.421,0l13.583-13.576c0.944-0.944,0.944-2.477,0-3.421	l-2.587-2.587c-0.944-0.944-2.477-0.944-3.421,0l-9.284,9.292l-9.288-9.297C21.774,35.757,20.241,35.757,19.297,36.701z"></path><path fill="#fff" fill-opacity=".298" d="M16.715,17.293L30.297,3.707	c0.944-0.945,2.477-0.945,3.421-0.001l13.583,13.577c-1.957,1.472-4.753,1.317-6.535-0.464l-8.76-8.752l-8.753,8.759	C21.47,18.61,18.674,18.765,16.715,17.293z"></path><path fill="#fff" fill-rule="evenodd" d="M23.43,14.577	c-0.585-0.585-0.585-1.536,0-2.121l3.024-3.024c0.585-0.585,1.536-0.585,2.121,0c0.585,0.585,0.585,1.536,0,2.121l-3.024,3.024	C24.966,15.162,24.015,15.162,23.43,14.577z" clip-rule="evenodd"></path><path fill-opacity=".149" d="M16.715,42.706l13.581,13.585	c0.944,0.945,2.477,0.945,3.421,0.001l13.583-13.577c-1.957-1.472-4.753-1.317-6.535,0.464l-8.76,8.752l-8.753-8.759	C21.47,41.389,18.674,41.234,16.715,42.706z"></path><path fill-opacity=".298" d="M58.009,61c0-1.656-11.648-3-26-3s-26,1.344-26,3	c0,1.656,11.648,3,26,3S58.009,62.656,58.009,61z"></path>
</svg>

<!-- ZELLE -->

<svg xmlns="http://www.w3.org/2000/svg" x="0px" y="0px" width="100" height="100" viewBox="0 0 48 48">
<path fill="#a0f" d="M35,42H13c-3.866,0-7-3.134-7-7V13c0-3.866,3.134-7,7-7h22c3.866,0,7,3.134,7,7v22 C42,38.866,38.866,42,35,42z"></path><path fill="#fff" d="M17.5,18.5h14c0.552,0,1-0.448,1-1V15c0-0.552-0.448-1-1-1h-14c-0.552,0-1,0.448-1,1v2.5	C16.5,18.052,16.948,18.5,17.5,18.5z"></path><path fill="#fff" d="M17,34.5h14.5c0.552,0,1-0.448,1-1V31c0-0.552-0.448-1-1-1H17c-0.552,0-1,0.448-1,1v2.5	C16,34.052,16.448,34.5,17,34.5z"></path><path fill="#fff" d="M22.25,11v6c0,0.276,0.224,0.5,0.5,0.5h3.5c0.276,0,0.5-0.224,0.5-0.5v-6c0-0.276-0.224-0.5-0.5-0.5	h-3.5C22.474,10.5,22.25,10.724,22.25,11z"></path><path fill="#fff" d="M22.25,32v6c0,0.276,0.224,0.5,0.5,0.5h3.5c0.276,0,0.5-0.224,0.5-0.5v-6c0-0.276-0.224-0.5-0.5-0.5	h-3.5C22.474,31.5,22.25,31.724,22.25,32z"></path><path fill="#fff" d="M16.578,30.938H22l10.294-12.839c0.178-0.222,0.019-0.552-0.266-0.552H26.5L16.275,30.298	C16.065,30.553,16.247,30.938,16.578,30.938z"></path>
</svg>

<!-- ZINLI -->

<svg xmlns="http://www.w3.org/2000/svg" x="0px" y="0px" width="100" height="100" viewBox="0 0 52 22">
<path d="M49.84 6.554v13.954h-3.318V6.553h3.317zM22.4 6.554v13.954h-3.315V6.553H22.4zM43.579.995v19.513h-3.32V.995h3.32zM18.595 2.166a2.164 2.164 0 112.161 2.162 2.179 2.179 0 01-2.161-2.162zM46.04 3.166a2.163 2.163 0 112.163 2.162 2.179 2.179 0 01-2.164-2.162zM33.988 6.562v7.16l-8.235-7.14a.342.342 0 00-.568.251V20.52h3.317v-7.175l8.238 7.162a.344.344 0 00.57-.251V6.562h-3.322zM6.489 20.513h9.64v-3.315H9.364l-2.875 3.315zM4.612 20.507L16.23 7.114a.344.344 0 00-.251-.57H2.22V9.86h7.36L.725 19.947a.344.344 0 00.251.57l3.635-.01z" fill="var(--green)" color="var(--green)" width="100"></path>
</svg>


