<?xml version="1.0" encoding="utf-8"?>
<!-- Generator: Adobe Illustrator 27.2.0, SVG Export Plug-In . SVG Version: 6.00 Build 0)  -->
<svg version="1.1" id="Capa_1" xmlns="http://www.w3.org/2000/svg" xmlns:xlink="http://www.w3.org/1999/xlink" x="0px" y="0px"
	 viewBox="0 0 1080 1080" style="enable-background:new 0 0 1080 1080;" xml:space="preserve">
<style type="text/css">
	.st0{fill:#FFEBF3;}
	.st1{fill:#D83680;}
	.st2{fill:url(#SVGID_1_);}
	.st3{fill:url(#SVGID_00000109025759858845659540000001740552147830379186_);}
	.st4{fill:url(#SVGID_00000074437940177210500570000009318294206723998633_);}
	.st5{fill:url(#SVGID_00000083049895350746912320000005191607538431895230_);}
	.st6{fill:url(#SVGID_00000059280451402189508900000011835886550033114297_);}
	.st7{fill:url(#SVGID_00000168083301562212617200000003693453517924951700_);}
	.st8{fill:#F282B0;}
	.st9{fill:#FFFFFF;}
	.st10{fill:url(#SVGID_00000090286519773936963740000016796682549321641657_);}
	.st11{fill:url(#SVGID_00000114059906278773639440000007250167789834837175_);}
	.st12{fill:url(#SVGID_00000065066755567968242670000018436611158291941040_);}
	.st13{fill:url(#SVGID_00000001644376600966025590000008487459822948501408_);}
	.st14{fill:url(#SVGID_00000122719800803247746800000011782976882817753769_);}
	.st15{fill:url(#SVGID_00000054241172940888383010000005590723240843713471_);}
	.st16{fill:url(#SVGID_00000085964804480125463090000010023830297169563827_);}
	.st17{fill:url(#SVGID_00000127042679474942768550000005182439879134560679_);}
	.st18{fill:url(#SVGID_00000120554989971632902550000011354670583787612801_);}
	.st19{fill:url(#SVGID_00000131342147163434385350000011071181211723141011_);}
	.st20{fill:url(#SVGID_00000051352128782916636970000013133134904671157950_);}
	.st21{fill:url(#SVGID_00000009589701947051289940000010093486782283160496_);}
	.st22{fill:url(#SVGID_00000105395855496904406340000002667689441211331974_);}
	.st23{fill:url(#SVGID_00000114074931097134810920000003707605219463505066_);}
	.st24{fill:#FBDAE5;}
	.st25{fill:url(#SVGID_00000003799741544596722370000017064327224317579183_);}
	.st26{fill:url(#SVGID_00000018950249240466779990000007362863373865112449_);}
	.st27{fill:url(#SVGID_00000086671751998355662130000006022218936432990128_);}
	.st28{fill:url(#SVGID_00000098219190664991249330000005513476431787212426_);}
	.st29{fill:url(#SVGID_00000044173503384910332060000001247586367997554562_);}
	.st30{fill:#FFEA85;}
	.st31{fill:url(#SVGID_00000174585515934788998370000017842205060560241820_);}
	.st32{fill:url(#SVGID_00000019650846524391711740000013096941706548286349_);}
	.st33{fill:url(#SVGID_00000143588996531245560570000008763591185808273839_);}
	.st34{fill:url(#SVGID_00000085968513959314554630000011707376356435057536_);}
	.st35{fill:url(#SVGID_00000039850105895951528560000000831153601708394674_);}
	.st36{fill:url(#SVGID_00000135653819624900046730000006348081919614070430_);}
	.st37{fill:url(#SVGID_00000049938462151532854210000016245237647697832837_);}
	.st38{fill:url(#SVGID_00000091732482731171677040000002389890385996255650_);}
	.st39{fill:url(#SVGID_00000036248456064408313790000018237904973218641581_);}
	.st40{fill:url(#SVGID_00000138543245135582678660000009005769196693892275_);}
	.st41{fill:url(#SVGID_00000068654036433661329320000003809683118684031109_);}
	.st42{fill:url(#SVGID_00000173871580938331503960000005592572172132415874_);}
	.st43{fill:url(#SVGID_00000157271809263878584870000009006699669941821585_);}
	.st44{fill:url(#SVGID_00000039846598240942658290000011591780486068742314_);}
	.st45{fill:url(#SVGID_00000068649192445392356860000015094396677614817198_);}
	.st46{fill:url(#SVGID_00000119824272978110526140000009490794058629897632_);}
	.st47{fill:url(#SVGID_00000035494517557709551560000005094703711856784057_);}
	.st48{fill:url(#SVGID_00000137092718348521543530000003107875168010405810_);}
	.st49{fill:url(#SVGID_00000016041751663210788450000014730504465056103866_);}
	.st50{fill:url(#SVGID_00000143592431549553128490000016348471314284170648_);}
	.st51{fill:url(#SVGID_00000098193453986438649400000010736203375349973415_);}
	.st52{fill:url(#SVGID_00000125591031634272753030000006724606757840934828_);}
	.st53{fill:url(#SVGID_00000009556097601524327160000001941768920317828745_);}
	.st54{fill:url(#SVGID_00000097460203323321682240000013468282402339891875_);}
	.st55{fill:url(#SVGID_00000148652969297860408810000006511185193073794483_);}
	.st56{opacity:0.51;fill:url(#SVGID_00000142872321789574427730000010644647429906288271_);}
	.st57{fill:#FFEBF3;stroke:#D83680;stroke-width:4;stroke-miterlimit:10;}
	.st58{fill:none;stroke:#D83680;stroke-width:4;stroke-miterlimit:10;}
	.st59{fill:#FBDAE5;stroke:#D83680;stroke-miterlimit:10;}
	.st60{fill:url(#SVGID_00000125602291081879588430000006749308710805828227_);}
	.st61{fill:#D83680;stroke:#D83680;stroke-miterlimit:10;}
	.st62{fill:none;stroke:#D83680;stroke-width:4;stroke-linecap:round;stroke-linejoin:round;stroke-miterlimit:10;}
	.st63{fill:url(#SVGID_00000135665097543580454720000006846849117497309857_);}
	.st64{fill:url(#SVGID_00000046337416910407515040000006390576692621257606_);}
	.st65{fill:none;stroke:#D83680;stroke-width:3;stroke-linecap:round;stroke-linejoin:round;stroke-miterlimit:10;}
	
		.st66{fill:url(#SVGID_00000011720979617105216530000010659084645781379218_);stroke:#D83680;stroke-width:3;stroke-linecap:round;stroke-linejoin:round;stroke-miterlimit:10;}
	
		.st67{fill:url(#SVGID_00000142154494966215838670000012035351770098483350_);stroke:#D83680;stroke-width:3;stroke-linecap:round;stroke-linejoin:round;stroke-miterlimit:10;}
	.st68{fill:none;stroke:#D83680;stroke-miterlimit:10;}
	.st69{fill:#FF99B9;stroke:#D83680;stroke-width:4;stroke-miterlimit:10;}
	.st70{fill:url(#SVGID_00000165938285242328438230000016121307055642392972_);}
	.st71{fill:url(#SVGID_00000100341766481773450180000006751193185221694369_);}
	.st72{fill:url(#SVGID_00000107571311570065895790000000154184385895244454_);}
	.st73{fill:url(#SVGID_00000110455970589389821820000013046756543205424779_);}
	.st74{fill:url(#SVGID_00000163757804109380554290000007291040799104370848_);}
	.st75{fill:url(#SVGID_00000119096106097407959160000006251290814394459828_);}
	.st76{fill:#FFFFFF;stroke:#D83680;stroke-width:3;stroke-linecap:round;stroke-linejoin:round;stroke-miterlimit:10;}
	.st77{fill:#F5CD99;}
	.st78{fill:#FBDAE5;stroke:#FFFFFF;stroke-width:16;stroke-miterlimit:10;}
	.st79{fill:#D83680;stroke:#FFFFFF;stroke-width:16;stroke-miterlimit:10;}
	
		.st80{fill:none;stroke:url(#SVGID_00000086680268064245921320000001583694551721485503_);stroke-width:5;stroke-linecap:round;stroke-miterlimit:10;}
	
		.st81{fill:none;stroke:url(#SVGID_00000038414601903460796660000010534055322752259503_);stroke-width:5;stroke-linecap:round;stroke-miterlimit:10;}
	
		.st82{fill:none;stroke:url(#SVGID_00000178200052379028678900000009391180609436042122_);stroke-width:5;stroke-linecap:round;stroke-miterlimit:10;}
	
		.st83{fill:none;stroke:url(#SVGID_00000088854854744792957410000017207538895399952270_);stroke-width:5;stroke-linecap:round;stroke-miterlimit:10;}
	
		.st84{fill:none;stroke:url(#SVGID_00000036965141547137382660000008531674118562760367_);stroke-width:5;stroke-linecap:round;stroke-miterlimit:10;}
	
		.st85{fill:none;stroke:url(#SVGID_00000093164711249431875300000017260394705866097071_);stroke-width:5;stroke-linecap:round;stroke-miterlimit:10;}
	
		.st86{fill:none;stroke:url(#SVGID_00000101063387227040051610000000073889472144902815_);stroke-width:5;stroke-linecap:round;stroke-miterlimit:10;}
	
		.st87{fill:none;stroke:url(#SVGID_00000052819459950215189350000000263855325074628542_);stroke-width:5;stroke-linecap:round;stroke-miterlimit:10;}
	
		.st88{fill:none;stroke:url(#SVGID_00000139267827487394764740000005256896161030668178_);stroke-width:5;stroke-linecap:round;stroke-miterlimit:10;}
	
		.st89{fill:none;stroke:url(#SVGID_00000065759484665119612720000013728086336376466852_);stroke-width:5;stroke-linecap:round;stroke-miterlimit:10;}
	
		.st90{fill:none;stroke:url(#SVGID_00000074431242720411382950000006091234595866581392_);stroke-width:5;stroke-linecap:round;stroke-miterlimit:10;}
	
		.st91{fill:none;stroke:url(#SVGID_00000099648782119851696460000012551904396930755475_);stroke-width:5;stroke-linecap:round;stroke-miterlimit:10;}
	
		.st92{fill:none;stroke:url(#SVGID_00000173868436088854950660000009334497324048655532_);stroke-width:5;stroke-linecap:round;stroke-miterlimit:10;}
	
		.st93{fill:none;stroke:url(#SVGID_00000137849133652836337320000018052940084894493885_);stroke-width:5;stroke-linecap:round;stroke-miterlimit:10;}
	.st94{fill:#FFFFFF;stroke:#FFFFFF;stroke-width:16;stroke-miterlimit:10;}
	.st95{fill:none;}
	.st96{fill:#1D1D1B;}
	.st97{fill:#D73680;}
</style>
<radialGradient id="SVGID_1_" cx="537" cy="544" r="485" gradientUnits="userSpaceOnUse">
	<stop  offset="0" style="stop-color:#FA84AE"/>
	<stop  offset="0.9866" style="stop-color:#FFFFFF"/>
</radialGradient>
<circle style="opacity:0.51;fill:url(#SVGID_1_);" cx="537" cy="544" r="485"/>
<g>
	<g>
		<g>
			<g>
				<path class="st57" d="M190.97,451.88l-0.3,1.62l0.02-1.6C190.78,451.89,190.88,451.88,190.97,451.88z"/>
			</g>
			<g>
				<path class="st57" d="M889.33,453.5l-0.3-1.62c0.09,0,0.19,0.01,0.28,0.02L889.33,453.5z"/>
			</g>
			<g>
				<path class="st57" d="M540,606.74c-0.02-0.56,0-0.88,0-0.88S540.02,606.18,540,606.74z"/>
				<path class="st57" d="M540,605.86c0,0-0.02,0.32,0,0.88C540.02,606.18,540,605.86,540,605.86z M540,605.86c0,0-0.02,0.32,0,0.88
					C540.02,606.18,540,605.86,540,605.86z M540,605.86c0,0-0.02,0.32,0,0.88C540.02,606.18,540,605.86,540,605.86z"/>
			</g>
			<g>
				<path class="st58" d="M652.33,485.87c0-0.01-0.01-0.01-0.01-0.01"/>
				<path class="st57" d="M652.62,486.02l-2.1,3.5l1.81-3.65C652.43,485.91,652.52,485.96,652.62,486.02z"/>
			</g>
			<g>
				<path class="st57" d="M889.33,453.5l-0.3-1.62c0.09,0,0.19,0.01,0.28,0.02L889.33,453.5z"/>
			</g>
			<g>
				<path class="st57" d="M889.33,453.5l-0.3-1.62c0.09,0,0.19,0.01,0.28,0.02L889.33,453.5z"/>
			</g>
			<g>
				<path class="st57" d="M889.33,453.5l-0.3-1.62c0.09,0,0.19,0.01,0.28,0.02L889.33,453.5z"/>
			</g>
			<g>
				<g>
					<polygon class="st57" points="567.27,359.23 566.38,360.05 565.37,358.94 566.13,358.25 					"/>
				</g>
				<g>
					<path class="st57" d="M517.62,258.12c-6.07-5.15-17.35-14.69-31.78-19.07c0,0.01,0.01,0.02,0.01,0.03
						c14.5,4.47,25.81,14.24,31.91,19.51c6.81,5.88,12.76,12.69,17.8,20.35c0.13-0.01,0.27-0.02,0.41-0.03
						C530.78,271.04,524.59,264.01,517.62,258.12z"/>
				</g>
			</g>
			<g>
				<path class="st57" d="M540,606.74c-0.02-0.56,0-0.88,0-0.88S540.02,606.18,540,606.74z"/>
				<path class="st57" d="M540,605.86c0,0-0.02,0.32,0,0.88C540.02,606.18,540,605.86,540,605.86z M540,605.86c0,0-0.02,0.32,0,0.88
					C540.02,606.18,540,605.86,540,605.86z M540,605.86c0,0-0.02,0.32,0,0.88C540.02,606.18,540,605.86,540,605.86z"/>
			</g>
			<g>
				<path class="st57" d="M429.53,489.6l-2.15-3.58c0.1-0.06,0.19-0.11,0.29-0.16h0.01L429.53,489.6z"/>
			</g>
			<g>
				<path class="st57" d="M405.26,147.58c2.07,1.82,4.1,3.7,6.09,5.65C409.36,151.27,407.33,149.38,405.26,147.58z M427.68,485.86
					L427.68,485.86c-0.11,0.05-0.2,0.1-0.3,0.16l2.15,3.58L427.68,485.86z M566.13,358.25l-0.76,0.69l1.01,1.11l0.89-0.82
					L566.13,358.25z M652.33,485.87l-1.81,3.65l2.1-3.5C652.52,485.96,652.43,485.91,652.33,485.87z"/>
				<path class="st58" d="M540,605.86c0,0-0.02,0.32,0,0.88C540.02,606.18,540,605.86,540,605.86z M190.69,451.9l-0.02,1.6l0.3-1.62
					C190.88,451.88,190.78,451.89,190.69,451.9z M405.26,147.58c2.07,1.82,4.1,3.7,6.09,5.65
					C409.36,151.27,407.33,149.38,405.26,147.58z"/>
				<path class="st57" d="M954.48,522.78c-13.08,13.19-29.48,21.92-47.34,25.38c0.57,3.36,0.86,6.77,0.86,10.2
					c0,33.91-27.59,61.5-61.5,61.5c-3.62,0-7.22-0.32-10.75-0.95c-1.85,6.63-4.81,12.92-8.82,18.65
					c-11.51,16.47-30.36,26.3-50.43,26.3c-30.09,0-55.21-21.73-60.48-50.32c-2.01,2.69-4.1,5.33-6.27,7.94
					c-12.82,15.34-28.22,28.82-45.77,40.04c-36.14,23.12-79.02,35.34-123.98,35.34c-44.96,0-87.84-12.22-123.98-35.34
					c-17.55-11.22-32.95-24.7-45.77-40.04c-2.17-2.61-4.26-5.25-6.27-7.94c-5.27,28.59-30.39,50.32-60.48,50.32
					c-20.07,0-38.92-9.83-50.41-26.28c-4.02-5.74-6.99-12.04-8.84-18.67c-3.53,0.63-7.13,0.95-10.75,0.95
					c-33.91,0-61.5-27.59-61.5-61.5c0-3.43,0.29-6.84,0.86-10.2c-17.86-3.46-34.26-12.19-47.34-25.38
					C108.42,505.53,99,482.65,99,458.36c0-18.8,5.66-36.86,16.37-52.24c10.45-15,24.95-26.43,41.94-33.04l0.34-0.14l0.35-0.11
					c5.01-1.73,10.15-3.18,15.27-4.33c10.66-2.41,21.67-3.64,32.73-3.64c32.17,0,62.76,10.15,88.47,29.34
					c12.36,9.23,23.16,20.27,32.11,32.83c5.88,8.24,10.88,17.02,14.93,26.22c2.29-5.77,4.9-11.45,7.84-16.99
					c-5.79-6.1-9.35-14.34-9.35-23.4c0-6.94,2.06-13.44,5.65-18.85c-1.07-3.21-1.65-6.63-1.65-10.15c0-7.03,2.28-13.53,6.13-18.82
					c-9.07-12.23-21.99-30.56-34.85-51.88c-38.26-63.42-52.46-113.94-42.21-150.15c5.65-19.98,18.33-35.17,37.68-45.15
					c13.79-7.11,27.88-10.72,41.86-10.72h0.01c19.65,0,38.88,7.04,57.17,20.93c13.94,10.58,27.44,25.28,40.14,43.68
					c17.26,25,29.37,51.39,35.91,67.3c0,0.01,0.01,0.02,0.01,0.03c14.5,4.47,25.81,14.24,31.91,19.51
					c6.81,5.88,12.76,12.69,17.8,20.35c0.13-0.01,0.27-0.02,0.41-0.03c0.21-0.02,0.42-0.03,0.63-0.04c0.48-0.02,0.97-0.03,1.45-0.03
					c0.69,0,1.34,0.02,1.95,0.06c0.61-0.04,1.26-0.06,1.95-0.06c0.47,0,0.94,0.01,1.41,0.03c0.23,0.01,0.45,0.03,0.67,0.04
					c5.18-7.86,11.38-14.9,18.34-20.79c6.08-5.14,17.36-14.69,31.8-19.08c6.54-15.92,18.65-42.3,35.9-67.3
					c12.7-18.4,26.2-33.1,40.14-43.68c18.29-13.88,37.52-20.92,57.18-20.92c13.98,0,28.07,3.61,41.86,10.72
					c19.35,9.98,32.03,25.17,37.68,45.15c10.25,36.21-3.95,86.73-42.21,150.15c-12.86,21.32-25.78,39.65-34.85,51.88
					c3.85,5.29,6.13,11.79,6.13,18.82c0,3.52-0.58,6.94-1.65,10.15c3.59,5.41,5.65,11.91,5.65,18.85c0,9.06-3.56,17.3-9.35,23.4
					c2.94,5.54,5.55,11.22,7.84,16.99c4.05-9.2,9.05-17.98,14.93-26.22c8.95-12.56,19.75-23.6,32.11-32.83
					c25.71-19.19,56.3-29.34,88.47-29.34c11.06,0,22.07,1.23,32.73,3.64c5.12,1.15,10.26,2.6,15.27,4.33l0.35,0.11l0.34,0.14
					c16.99,6.61,31.49,18.04,41.94,33.04C975.34,421.5,981,439.56,981,458.36C981,482.65,971.58,505.53,954.48,522.78z"/>
			</g>
			<g>
				<path class="st57" d="M190.97,451.88l-0.3,1.62l0.02-1.6C190.78,451.89,190.88,451.88,190.97,451.88z"/>
			</g>
			<g>
				<path class="st57" d="M190.97,451.88l-0.3,1.62l0.02-1.6C190.78,451.89,190.88,451.88,190.97,451.88z"/>
			</g>
			<g>
				<path class="st57" d="M190.97,451.88l-0.3,1.62l0.02-1.6C190.78,451.89,190.88,451.88,190.97,451.88z"/>
			</g>
		</g>
	</g>
	<g>
		<path class="st9" d="M749.31,303.86c35.46-58.78,69.7-140.08,11.69-170c-86.83-44.79-144.42,96.29-153.68,120.89l-0.02,0.05
			c3.18-0.2,6.43,0.1,9.7,1.06c11.76,3.45,17.33,13.58,17.75,14.38c7.36,13.9-0.02,28.26-0.75,29.62c0.79,1.33,1.53,2.67,2.23,4
			c13.08,24.86,11.31,49.62-1.23,60c-1.6,1.33-3.34,2.38-5.15,3.2c-11.4,5.19-25.99,1.34-31.85-0.2
			c-10.1-2.66-18.37-7.48-24.99-12.9c5.73,6.33,11.91,13.93,17.99,22.9c6.3,9.29,11.2,18.14,15,26
			c-9.07,1.37-21.08,4.21-34.12,10.41c-7.96,3.79-14.58,8-19.88,11.91c0.05-17.69-1.21-38.05-5-60.32c-1-5.87-2.11-11.53-3.32-16.97
			c-1.15-5.21-2.39-10.22-3.68-15.03c-1.29,4.81-2.53,9.82-3.68,15.03c-1.21,5.44-2.32,11.1-3.32,16.97
			c-3.79,22.27-5.05,42.63-5,60.32c-5.3-3.91-11.92-8.12-19.88-11.91c-13.04-6.2-25.05-9.04-34.12-10.41c3.8-7.86,8.7-16.71,15-26
			c6.08-8.97,12.26-16.57,17.99-22.9c-6.62,5.42-14.89,10.24-24.99,12.9c-5.86,1.54-20.45,5.39-31.85,0.2
			c-1.81-0.82-3.55-1.87-5.15-3.2c-12.54-10.38-14.31-35.14-1.23-60c0.7-1.33,1.44-2.67,2.23-4c-0.73-1.36-8.11-15.72-0.75-29.62
			c0.42-0.8,5.99-10.93,17.75-14.38c3.27-0.96,6.52-1.26,9.7-1.06l-0.02-0.05c-9.26-24.6-66.85-165.68-153.68-120.89
			c-58.01,29.92-23.77,111.22,11.69,170c22.62,37.5,45.73,65.83,45.73,65.83l0.09,0.18c-0.17-0.01-0.34-0.01-0.51-0.01
			c-7.73,0-14,6.27-14,14c0,6.11,3.92,11.31,9.38,13.21c-7.59,1.25-13.38,7.84-13.38,15.79c0,8.84,7.16,16,16,16
			c0.3,0,0.6-0.01,0.9-0.03c-9.72,14.07-17.08,29.48-21.62,45.84c-5.99-0.6-10.28-0.72-10.28,0.19c0,0-1,1,1,5
			c0.49,0.97,2.74,4.89,5.88,10.27c-1.24,7.59-1.88,15.35-1.88,23.23c0,0.62,0,1.23,0.02,1.85c8.59,4.92,15.52,9.34,16.4,10.88
			c2.42,4.24-2.42,6.77-2.42,6.77c-0.62,0-6.09-2.42-13.35-5.82c0.88,9.33,2.67,18.44,5.27,27.26c3.21-0.63,5.46-0.85,6.08-0.44
			c3,2,3,7,3,7c-1.56,0.99-3.58,1.99-5.91,2.95c24.75,66.73,97.28,115.05,182.91,115.05s158.16-48.32,182.91-115.05
			c-2.33-0.96-4.35-1.96-5.91-2.95c0,0,0-5,3-7c0.62-0.41,2.87-0.19,6.08,0.44c2.6-8.82,4.39-17.93,5.27-27.26
			c-7.26,3.4-12.73,5.82-13.35,5.82c0,0-4.84-2.53-2.42-6.77c0.88-1.54,7.81-5.96,16.4-10.88c0.02-0.62,0.02-1.23,0.02-1.85
			c0-7.88-0.64-15.64-1.88-23.23c3.14-5.38,5.39-9.3,5.88-10.27c2-4,1-5,1-5c0-0.91-4.29-0.79-10.28-0.19
			c-4.54-16.36-11.9-31.77-21.62-45.84c0.3,0.02,0.6,0.03,0.9,0.03c8.84,0,16-7.16,16-16c0-7.95-5.79-14.54-13.38-15.79
			c5.46-1.9,9.38-7.1,9.38-13.21c0-7.73-6.27-14-14-14c-0.17,0-0.34,0-0.51,0.01l0.09-0.18
			C703.58,369.69,726.69,341.36,749.31,303.86z M540,606.74c-0.02-0.56,0-0.88,0-0.88S540.02,606.18,540,606.74z"/>
	</g>
	<g>
		<g>
			<path class="st59" d="M552.02,302.82c-0.01,0.01-0.01,0.03-0.02,0.04"/>
			<path class="st59" d="M573.01,353.96c-0.34-0.37-0.68-0.74-1.01-1.1"/>
			<path class="st59" d="M528,302.86c-0.01-0.01-0.01-0.03-0.02-0.04"/>
			<path class="st59" d="M508,352.86c-0.33,0.36-0.67,0.73-1.01,1.1"/>
			<path class="st59" d="M635,363.86c-1.6,1.33-3.34,2.38-5.15,3.2c-11.4,5.19-25.99,1.34-31.85-0.2
				c-10.1-2.66-18.37-7.48-24.99-12.9c5.73,6.33,11.91,13.93,17.99,22.9c6.3,9.29,11.2,18.14,15,26
				c-9.07,1.37-21.08,4.21-34.12,10.41c-7.96,3.79-14.58,8-19.88,11.91c0.05-17.69-1.21-38.05-5-60.32
				c-1-5.87-2.11-11.53-3.32-16.97c-1.15-5.21-2.39-10.22-3.68-15.03c-1.29,4.81-2.53,9.82-3.68,15.03
				c-1.21,5.44-2.32,11.1-3.32,16.97c-3.79,22.27-5.05,42.63-5,60.32c-5.3-3.91-11.92-8.12-19.88-11.91
				c-13.04-6.2-25.05-9.04-34.12-10.41c3.8-7.86,8.7-16.71,15-26c6.08-8.97,12.26-16.57,17.99-22.9
				c-6.62,5.42-14.89,10.24-24.99,12.9c-5.86,1.54-20.45,5.39-31.85,0.2c-1.81-0.82-3.55-1.87-5.15-3.2
				c-12.54-10.38-14.31-35.14-1.23-60c0.7-1.33,1.44-2.67,2.23-4c-0.73-1.36-8.11-15.72-0.75-29.62c0.42-0.8,5.99-10.93,17.75-14.38
				c3.27-0.96,6.52-1.26,9.7-1.06c14.2,0.91,26.91,11.9,33.3,17.42c5.64,4.87,15.1,14.47,21.98,30.6
				c5.31-7.71,12.02-5.77,12.02-5.77s6.71-1.94,12.02,5.77c6.88-16.13,16.34-25.73,21.98-30.6c6.39-5.52,19.1-16.51,33.3-17.42
				c3.18-0.2,6.43,0.1,9.7,1.06c11.76,3.45,17.33,13.58,17.75,14.38c7.36,13.9-0.02,28.26-0.75,29.62c0.79,1.33,1.53,2.67,2.23,4
				C649.31,328.72,647.54,353.48,635,363.86z"/>
			
				<linearGradient id="SVGID_00000079469654942904440430000001516187714054019476_" gradientUnits="userSpaceOnUse" x1="540" y1="425.18" x2="540" y2="254.7412">
				<stop  offset="0" style="stop-color:#FFD7B9"/>
				<stop  offset="1" style="stop-color:#FF6197"/>
			</linearGradient>
			<path style="fill:url(#SVGID_00000079469654942904440430000001516187714054019476_);" d="M635,363.86
				c-1.6,1.33-3.34,2.38-5.15,3.2c-11.4,5.19-25.99,1.34-31.85-0.2c-10.1-2.66-18.37-7.48-24.99-12.9
				c5.73,6.33,11.91,13.93,17.99,22.9c6.3,9.29,11.2,18.14,15,26c-9.07,1.37-21.08,4.21-34.12,10.41c-7.96,3.79-14.58,8-19.88,11.91
				c0.05-17.69-1.21-38.05-5-60.32c-1-5.87-2.11-11.53-3.32-16.97c-1.15-5.21-2.39-10.22-3.68-15.03
				c-1.29,4.81-2.53,9.82-3.68,15.03c-1.21,5.44-2.32,11.1-3.32,16.97c-3.79,22.27-5.05,42.63-5,60.32
				c-5.3-3.91-11.92-8.12-19.88-11.91c-13.04-6.2-25.05-9.04-34.12-10.41c3.8-7.86,8.7-16.71,15-26
				c6.08-8.97,12.26-16.57,17.99-22.9c-6.62,5.42-14.89,10.24-24.99,12.9c-5.86,1.54-20.45,5.39-31.85,0.2
				c-1.81-0.82-3.55-1.87-5.15-3.2c-12.54-10.38-14.31-35.14-1.23-60c0.7-1.33,1.44-2.67,2.23-4c-0.73-1.36-8.11-15.72-0.75-29.62
				c0.42-0.8,5.99-10.93,17.75-14.38c3.27-0.96,6.52-1.26,9.7-1.06c14.2,0.91,26.91,11.9,33.3,17.42
				c5.64,4.87,15.1,14.47,21.98,30.6c5.31-7.71,12.02-5.77,12.02-5.77s6.71-1.94,12.02,5.77c6.88-16.13,16.34-25.73,21.98-30.6
				c6.39-5.52,19.1-16.51,33.3-17.42c3.18-0.2,6.43,0.1,9.7,1.06c11.76,3.45,17.33,13.58,17.75,14.38
				c7.36,13.9-0.02,28.26-0.75,29.62c0.79,1.33,1.53,2.67,2.23,4C649.31,328.72,647.54,353.48,635,363.86z"/>
		</g>
	</g>
	<g>
		<path class="st61" d="M737,474.86c0-0.91-4.29-0.79-10.28-0.19c-13.83,1.38-36.72,5.35-36.72,5.35c7-8.84,0-21.16,0-21.16
			c-10,18-37,13-37,13c4-6-2-12-2-12c0,10-8,12-8,12c-72,22-64,97-64,97c0,2,1,3,1,3c11,14,28,18,28,18c48,17,84-34,84-34
			c11-10,22-4,22-4c-1-12-12-14-12-14s18.35-30.96,28.12-47.73c3.14-5.38,5.39-9.3,5.88-10.27C738,475.86,737,474.86,737,474.86z
			 M689,525.86c-0.46,15.51-6.68,27.69-12.13,35.53c-2.78,4-5.35,6.86-6.87,8.47c0,0-41,39-86-1c-2.43-43.87,23.19-78.25,53-83
			c5.46-0.87,10.71-0.69,15.62,0.16c16.14,2.75,28.57,12.63,32.38,15.84C687.1,507.52,689.3,515.81,689,525.86z"/>
		<path class="st61" d="M437,471.86c0,0-8-2-8-12c0,0-6,6-2,12c0,0-27,5-37-13c0,0-7,12.32,0,21.16c0,0-22.89-3.97-36.72-5.35
			c-5.99-0.6-10.28-0.72-10.28,0.19c0,0-1,1,1,5c0.49,0.97,2.74,4.89,5.88,10.27c9.77,16.77,28.12,47.73,28.12,47.73s-11,2-12,14
			c0,0,11-6,22,4c0,0,36,51,84,34c0,0,17-4,28-18c0,0,1-1,1-3C501,568.86,509,493.86,437,471.86z M496,568.86c-45,40-86,1-86,1
			c-1.52-1.61-4.09-4.47-6.87-8.47c-5.45-7.84-11.67-20.02-12.13-35.53c-0.3-10.05,1.9-18.34,4-24
			c3.81-3.21,16.24-13.09,32.38-15.84c4.91-0.85,10.16-1.03,15.62-0.16C472.81,490.61,498.43,524.99,496,568.86z"/>
		<path class="st62" d="M496,568.86c-45,40-86,1-86,1c-1.52-1.61-4.09-4.47-6.87-8.47c-5.45-7.84-11.67-20.02-12.13-35.53
			c-0.3-10.05,1.9-18.34,4-24c3.81-3.21,16.24-13.09,32.38-15.84c4.91-0.85,10.16-1.03,15.62-0.16
			C472.81,490.61,498.43,524.99,496,568.86z"/>
		<g>
			
				<linearGradient id="SVGID_00000055666889170227890360000014809581498595159197_" gradientUnits="userSpaceOnUse" x1="231.9968" y1="645.86" x2="231.9968" y2="382.86">
				<stop  offset="0" style="stop-color:#FFD7B9"/>
				<stop  offset="1" style="stop-color:#FF6197"/>
			</linearGradient>
			<path style="fill:url(#SVGID_00000055666889170227890360000014809581498595159197_);" d="M190.5,531.86c3.02,0,6-0.18,8.93-0.54
				c-5.9,7.42-9.43,16.82-9.43,27.04c0,24.02,19.48,43.5,43.5,43.5c10.57,0,20.25-3.77,27.79-10.03c-0.84,3.37-1.29,6.9-1.29,10.53
				c0,9.26,2.89,17.84,7.83,24.89c7.86,11.25,20.91,18.61,35.67,18.61c24.02,0,43.5-19.48,43.5-43.5c0-5.91-1.18-11.54-3.31-16.67
				c-1.82-2.91-3.51-5.92-5.09-9.02c-3.71-7.23-6.78-14.94-9.13-23.03c-3.55-12.18-5.47-25.22-5.47-38.78
				c0-14.33,2.15-28.09,6.1-40.86c-16.53-52.82-65.84-91.14-124.1-91.14c-9.88,0-19.51,1.1-28.76,3.2
				c-4.56,1.02-9.03,2.29-13.4,3.79C136.43,400.52,117,427.17,117,458.36C117,498.95,149.91,531.86,190.5,531.86z"/>
			
				<linearGradient id="SVGID_00000162311905862655192260000002005632835849141406_" gradientUnits="userSpaceOnUse" x1="848.0032" y1="645.86" x2="848.0032" y2="382.86">
				<stop  offset="0" style="stop-color:#FFD7B9"/>
				<stop  offset="1" style="stop-color:#FF6197"/>
			</linearGradient>
			<path style="fill:url(#SVGID_00000162311905862655192260000002005632835849141406_);" d="M889.5,531.86c-3.02,0-6-0.18-8.93-0.54
				c5.9,7.42,9.43,16.82,9.43,27.04c0,24.02-19.48,43.5-43.5,43.5c-10.57,0-20.25-3.77-27.79-10.03c0.84,3.37,1.29,6.9,1.29,10.53
				c0,9.26-2.89,17.84-7.83,24.89c-7.86,11.25-20.91,18.61-35.67,18.61c-24.02,0-43.5-19.48-43.5-43.5c0-5.91,1.18-11.54,3.31-16.67
				c1.82-2.91,3.51-5.92,5.09-9.02c3.71-7.23,6.78-14.94,9.13-23.03c3.55-12.18,5.47-25.22,5.47-38.78c0-14.33-2.15-28.09-6.1-40.86
				c16.53-52.82,65.84-91.14,124.1-91.14c9.88,0,19.51,1.1,28.76,3.2c4.56,1.02,9.03,2.29,13.4,3.79
				c27.41,10.67,46.84,37.32,46.84,68.51C963,498.95,930.09,531.86,889.5,531.86z"/>
			<path class="st65" d="M540,601.86c0,0,6-1,12-10"/>
			<path class="st65" d="M540,605.86c0,0-1,21,22,22c0,0,17,2,18-18"/>
			<path class="st65" d="M676.86,561.41c-0.08,0.15-0.15,0.3-0.23,0.45"/>
			<path class="st65" d="M652.62,486.02c-0.1-0.06-0.2-0.11-0.3-0.16"/>
			<polyline class="st65" points="679,581.62 702,585.86 689.54,567.86 			"/>
			<polyline class="st65" points="649.09,595.52 662,608.86 662.78,590.28 			"/>
			<path class="st65" d="M889.5,531.86c-3.02,0-6-0.18-8.93-0.54c5.9,7.42,9.43,16.82,9.43,27.04c0,24.02-19.48,43.5-43.5,43.5
				c-10.57,0-20.25-3.77-27.79-10.03c0.84,3.37,1.29,6.9,1.29,10.53c0,9.26-2.89,17.84-7.83,24.89
				c-7.86,11.25-20.91,18.61-35.67,18.61c-24.02,0-43.5-19.48-43.5-43.5c0-5.91,1.18-11.54,3.31-16.67
				c1.82-2.91,3.51-5.92,5.09-9.02c3.71-7.23,6.78-14.94,9.13-23.03c3.55-12.18,5.47-25.22,5.47-38.78c0-14.33-2.15-28.09-6.1-40.86
				c16.53-52.82,65.84-91.14,124.1-91.14c9.88,0,19.51,1.1,28.76,3.2c4.56,1.02,9.03,2.29,13.4,3.79
				c27.41,10.67,46.84,37.32,46.84,68.51C963,498.95,930.09,531.86,889.5,531.86z"/>
			<path class="st65" d="M890.19,531.85c-0.29,0.01-0.59,0.01-0.89,0.01c-22.09,0-40-17.91-40-40s17.91-40,40-40"/>
			<path class="st65" d="M889.03,451.88c13.7,0.48,24.67,11.74,24.67,25.57c0,10.6-6.44,19.69-15.62,23.57"/>
			<path class="st65" d="M540,297.05c0,0,11-3.19,16,14.81c0.46,1.66,1.64,5.82-0.11,10.36c-2.25,5.86-8.4,9.92-15.89,10.64"/>
			<path class="st65" d="M552,327.86c1.8,3.47,6.94,12.84,16.14,21.77c1.51,1.47,3.13,2.92,4.87,4.33"/>
			<path class="st65" d="M552,301.86c6.88-15.81,16.36-25.23,22-30c6.39-5.41,19.1-16.17,33.3-17.06"/>
			<path class="st65" d="M555,308.86c11.43-12.09,23.17-16.62,28-13c4.91,3.69,4.62,17.27-2,22c-2.7,1.93-5.87,1.97-9,2
				c-6.93,0.08-12.25-2.43-15-4"/>
			<path class="st65" d="M573.01,353.96c-0.34-0.37-0.68-0.74-1.01-1.1"/>
			<path class="st65" d="M543.68,347.89c-1.15-5.21-2.39-10.22-3.68-15.03"/>
			<path class="st65" d="M543.68,347.89c1.21,5.44,2.32,11.1,3.32,16.97c3.79,22.27,5.05,42.63,5,60.32
				c5.3-3.91,11.92-8.12,19.88-11.91c13.04-6.2,25.05-9.04,34.12-10.41c-3.8-7.86-8.7-16.71-15-26
				c-6.08-8.97-12.26-16.57-17.99-22.9c6.62,5.42,14.89,10.24,24.99,12.9c5.86,1.54,20.45,5.39,31.85,0.2
				c1.81-0.82,3.55-1.87,5.15-3.2c12.54-10.38,14.31-35.14,1.23-60c-0.7-1.33-1.44-2.67-2.23-4c0.73-1.36,8.11-15.72,0.75-29.62
				c-0.42-0.8-5.99-10.93-17.75-14.38c-3.27-0.96-6.52-1.26-9.7-1.06l0.02-0.05c9.26-24.6,66.85-165.68,153.68-120.89
				c58.01,29.92,23.77,111.22-11.69,170c-22.62,37.5-45.73,65.83-45.73,65.83l-0.09,0.18c0.17-0.01,0.34-0.01,0.51-0.01
				c7.73,0,14,6.27,14,14c0,6.11-3.92,11.31-9.38,13.21c7.59,1.25,13.38,7.84,13.38,15.79c0,8.84-7.16,16-16,16
				c-0.3,0-0.6-0.01-0.9-0.03c9.72,14.07,17.08,29.48,21.62,45.84"/>
			<path class="st65" d="M730.12,490.13c1.24,7.59,1.88,15.35,1.88,23.23c0,0.62,0,1.23-0.02,1.85c-0.04,3.98-0.26,7.93-0.63,11.83
				c-0.88,9.33-2.67,18.44-5.27,27.26c-0.95,3.21-2,6.38-3.17,9.51C698.16,630.54,625.63,678.86,540,678.86"/>
			
				<linearGradient id="SVGID_00000058585002700764765600000004837332003463588230_" gradientUnits="userSpaceOnUse" x1="707.8005" y1="239.542" x2="664.3864" y2="319.2725">
				<stop  offset="0" style="stop-color:#FAC4D2"/>
				<stop  offset="0.9866" style="stop-color:#FFFFFF"/>
			</linearGradient>
			
				<path style="fill:url(#SVGID_00000058585002700764765600000004837332003463588230_);stroke:#D83680;stroke-width:3;stroke-linecap:round;stroke-linejoin:round;stroke-miterlimit:10;" d="
				M642.11,302.07c0,0,44.43-117.2,81.5-102.37c37.07,14.83-48.36,139.22-55.25,163.26c0,0-1.99,3.01,2.05,10.99"/>
			<path class="st65" d="M540,297.05c0,0-11-3.19-16,14.81c-0.46,1.66-1.64,5.82,0.11,10.36c2.25,5.86,8.4,9.92,15.89,10.64"/>
			<path class="st65" d="M506.99,353.96c1.74-1.41,3.36-2.86,4.87-4.33c9.2-8.93,14.34-18.3,16.14-21.77"/>
			<path class="st65" d="M472.7,254.8c14.2,0.89,26.91,11.65,33.3,17.06c5.64,4.77,15.12,14.19,22,30"/>
			<path class="st65" d="M525,308.86c-11.43-12.09-23.17-16.62-28-13c-4.91,3.69-4.62,17.27,2,22c2.7,1.93,5.87,1.97,9,2
				c6.93,0.08,12.25-2.43,15-4"/>
			<path class="st65" d="M508,352.86c-0.33,0.36-0.67,0.73-1.01,1.1"/>
			<path class="st65" d="M540,332.86c-1.29,4.81-2.53,9.82-3.68,15.03"/>
			<path class="st65" d="M540,678.86c-85.63,0-158.16-48.32-182.91-115.05c-1.17-3.13-2.22-6.3-3.17-9.51
				c-2.6-8.82-4.39-17.93-5.27-27.26c-0.37-3.9-0.59-7.85-0.63-11.83c-0.02-0.62-0.02-1.23-0.02-1.85c0-7.88,0.64-15.64,1.88-23.23"
				/>
			<path class="st65" d="M353.28,474.67c4.54-16.36,11.9-31.77,21.62-45.84c-0.3,0.02-0.6,0.03-0.9,0.03c-8.84,0-16-7.16-16-16
				c0-7.95,5.79-14.54,13.38-15.79c-5.46-1.9-9.38-7.1-9.38-13.21c0-7.73,6.27-14,14-14c0.17,0,0.34,0,0.51,0.01l-0.09-0.18
				c0,0-23.11-28.33-45.73-65.83c-35.46-58.78-69.7-140.08-11.69-170c86.83-44.79,144.42,96.29,153.68,120.89l0.02,0.05
				c-3.18-0.2-6.43,0.1-9.7,1.06c-11.76,3.45-17.33,13.58-17.75,14.38c-7.36,13.9,0.02,28.26,0.75,29.62
				c-0.79,1.33-1.53,2.67-2.23,4c-13.08,24.86-11.31,49.62,1.23,60c1.6,1.33,3.34,2.38,5.15,3.2c11.4,5.19,25.99,1.34,31.85-0.2
				c10.1-2.66,18.37-7.48,24.99-12.9c-5.73,6.33-11.91,13.93-17.99,22.9c-6.3,9.29-11.2,18.14-15,26
				c9.07,1.37,21.08,4.21,34.12,10.41c7.96,3.79,14.58,8,19.88,11.91c-0.05-17.69,1.21-38.05,5-60.32c1-5.87,2.11-11.53,3.32-16.97"
				/>
			<path class="st65" d="M540,601.86c0,0-6-1-12-10"/>
			<path class="st65" d="M540,605.86c0,0,1,21-22,22c0,0-17,2-18-18"/>
			<path class="st65" d="M403.37,561.86c-0.08-0.15-0.15-0.3-0.23-0.45"/>
			<path class="st65" d="M427.68,485.86c-0.1,0.05-0.2,0.1-0.3,0.16"/>
			<polyline class="st65" points="401,581.62 378,585.86 390.46,567.86 			"/>
			<polyline class="st65" points="430.91,595.52 418,608.86 417.22,590.28 			"/>
			
				<linearGradient id="SVGID_00000134938650503461526940000010649091678308858752_" gradientUnits="userSpaceOnUse" x1="366.4487" y1="233.638" x2="411.8384" y2="312.2607">
				<stop  offset="0" style="stop-color:#FAC4D2"/>
				<stop  offset="0.9866" style="stop-color:#FFFFFF"/>
			</linearGradient>
			
				<path style="fill:url(#SVGID_00000134938650503461526940000010649091678308858752_);stroke:#D83680;stroke-width:3;stroke-linecap:round;stroke-linejoin:round;stroke-miterlimit:10;" d="
				M437.89,302.07c0,0-44.43-117.2-81.5-102.37s48.36,139.22,55.25,163.26c0,0,1.99,3.01-2.05,10.99"/>
			<path class="st65" d="M190.5,531.86c3.02,0,6-0.18,8.93-0.54c-5.9,7.42-9.43,16.82-9.43,27.04c0,24.02,19.48,43.5,43.5,43.5
				c10.57,0,20.25-3.77,27.79-10.03c-0.84,3.37-1.29,6.9-1.29,10.53c0,9.26,2.89,17.84,7.83,24.89
				c7.86,11.25,20.91,18.61,35.67,18.61c24.02,0,43.5-19.48,43.5-43.5c0-5.91-1.18-11.54-3.31-16.67c-1.82-2.91-3.51-5.92-5.09-9.02
				c-3.71-7.23-6.78-14.94-9.13-23.03c-3.55-12.18-5.47-25.22-5.47-38.78c0-14.33,2.15-28.09,6.1-40.86
				c-16.53-52.82-65.84-91.14-124.1-91.14c-9.88,0-19.51,1.1-28.76,3.2c-4.56,1.02-9.03,2.29-13.4,3.79
				C136.43,400.52,117,427.17,117,458.36C117,498.95,149.91,531.86,190.5,531.86z"/>
			<path class="st65" d="M189.81,531.85c0.29,0.01,0.59,0.01,0.89,0.01c22.09,0,40-17.91,40-40s-17.91-40-40-40"/>
			<path class="st65" d="M190.97,451.88c-13.7,0.48-24.67,11.74-24.67,25.57c0,10.6,6.44,19.69,15.62,23.57"/>
		</g>
		<path class="st61" d="M683,535.91c0,9.17-2.21,17.83-6.13,25.48c0,0.01-0.01,0.02-0.01,0.02c-2.78,3.99-5.34,6.84-6.86,8.45
			c0,0-41,39-86-1c-2.43-43.87,23.19-78.25,53-83c5.46-0.87,10.71-0.69,15.62,0.16C670.69,495.48,683,514.27,683,535.91z"/>
		<g>
			<path class="st30" d="M648.12,538.66c-16.24,3.9-18.87,7.06-22.12,26.54c-3.25-19.49-5.88-22.65-22.12-26.54
				c16.24-3.9,18.87-7.06,22.12-26.54C629.25,531.6,631.88,534.76,648.12,538.66z"/>
			<path class="st68" d="M648.12,538.66c-16.24,3.9-18.87,7.06-22.12,26.54c-3.25-19.49-5.88-22.65-22.12-26.54
				c16.24-3.9,18.87-7.06,22.12-26.54C629.25,531.6,631.88,534.76,648.12,538.66z"/>
		</g>
		<path class="st61" d="M496,568.86c-45,40-86,1-86,1c-1.52-1.61-4.08-4.46-6.86-8.45c0,0-0.01-0.01-0.01-0.02
			c-3.92-7.65-6.13-16.31-6.13-25.48c0-21.64,12.31-40.43,30.38-49.89c4.91-0.85,10.16-1.03,15.62-0.16
			C472.81,490.61,498.43,524.99,496,568.86z"/>
		<g>
			<path class="st30" d="M431.88,538.66c16.24,3.9,18.87,7.06,22.12,26.54c3.25-19.49,5.88-22.65,22.12-26.54
				c-16.24-3.9-18.87-7.06-22.12-26.54C450.75,531.6,448.12,534.76,431.88,538.66z"/>
			<path class="st68" d="M431.88,538.66c16.24,3.9,18.87,7.06,22.12,26.54c3.25-19.49,5.88-22.65,22.12-26.54
				c-16.24-3.9-18.87-7.06-22.12-26.54C450.75,531.6,448.12,534.76,431.88,538.66z"/>
		</g>
	</g>
	<g>
		<g>
			<path class="st69" d="M511.9,197.82c6.15,13.22,20.25,18.79,26.67,20.74c0.53,0.16,1.01,0.29,1.42,0.41
				c0.42-0.11,0.9-0.25,1.43-0.41c6.42-1.95,20.52-7.52,26.67-20.74c1.18-2.53,5.93-12.72,1.43-22.01
				c-0.66-1.38-2.19-4.43-5.71-6.74c-6.39-4.18-13.67-2.18-14.08-2.06c-5.06,1.5-8.13,5.54-9.74,8.41c-1.6-2.87-4.67-6.91-9.73-8.41
				c-0.41-0.12-7.69-2.12-14.08,2.06c-3.52,2.31-5.05,5.36-5.71,6.74C505.98,185.1,510.72,195.29,511.9,197.82z"/>
		</g>
	</g>
	<g>
		<path class="st57" d="M656.5,972.86h-232c-19.61,0-35.5-15.89-35.5-35.5v0c0-19.61,15.89-35.5,35.5-35.5h232
			c19.61,0,35.5,15.89,35.5,35.5v0C692,956.97,676.11,972.86,656.5,972.86z"/>
		<g>
			<g>
				<g>
					<path class="st57" d="M284.01,869.56c-0.21,0.3-0.41,0.58-0.62,0.86c-1.5,2.05-3.1,3.71-4.61,5.02
						c-6.8,5.91-16.14,8.9-27.78,8.9c-11.63,0-20.97-2.99-27.77-8.9c-5.12-4.45-11.22-12.76-11.22-27.1V744.35
						c0-14.34,6.1-22.65,11.22-27.1c6.8-5.91,16.14-8.9,27.77-8.9c11.64,0,20.98,2.99,27.78,8.9c1.48,1.29,3.04,2.9,4.51,4.89
						c0.22,0.28,0.42,0.56,0.63,0.86c0.2-0.29,0.4-0.58,0.6-0.86c-0.2-0.29-0.41-0.58-0.62-0.85c-1.44-1.9-2.95-3.45-4.39-4.71
						c-7-6.13-16.59-9.23-28.51-9.23c-11.91,0-21.5,3.1-28.5,9.23c-5.25,4.59-11.49,13.13-11.49,27.77v103.99
						c0,14.64,6.25,23.18,11.49,27.77c7,6.13,16.59,9.23,28.5,9.23c11.92,0,21.51-3.1,28.51-9.23c1.47-1.28,3.02-2.88,4.49-4.84
						c0.21-0.27,0.41-0.56,0.61-0.85C284.41,870.14,284.2,869.86,284.01,869.56z"/>
					<path class="st57" d="M854.85,730.19c-12.31-15.37-30.91-22.84-56.86-22.84c-25.61,0-44.09,7.45-56.51,22.78
						c-3.77,4.66-6.91,9.95-9.43,15.97c-0.59,1.4-1.15,2.84-1.66,4.32l0.14-0.78c0.23-1.21,0.4-2.4,0.52-3.57
						c1.74-16.75-6.88-30.08-22.65-34.51c-9.56-2.8-20.47-4.21-32.4-4.21c-25.61,0-44.1,7.45-56.51,22.78
						c-0.69,0.85-1.35,1.72-1.99,2.61c-0.26,0.35-0.51,0.7-0.75,1.06c-0.1-0.39-0.2-0.77-0.32-1.15c-2.14-7.44-6.13-12.34-9.66-15.4
						c-6.79-5.91-16.14-8.9-27.77-8.9c-11.64,0-20.98,2.99-27.77,8.9c-3.5,3.04-7.47,7.89-9.62,15.25c-0.12,0.4-0.23,0.81-0.34,1.23
						c-0.24-0.35-0.49-0.7-0.75-1.04c-0.58-0.78-1.18-1.55-1.8-2.3c-12.23-14.83-30.78-22.04-56.72-22.04h-33
						c-11.63,0-20.98,2.99-27.77,8.9c-1.52,1.32-3.12,2.97-4.62,5.02c-0.21,0.28-0.41,0.57-0.6,0.86c-0.21-0.29-0.41-0.58-0.62-0.86
						c-1.5-2.05-3.1-3.7-4.62-5.02c-6.79-5.91-16.13-8.9-27.77-8.9c-15.64,0-24.66,6.68-29.47,12.28c-1.29,1.5-2.6,3.3-3.8,5.45
						c-6.99-11.77-18.39-17.73-33.93-17.73c-11.4,0-20.54,3.09-27.19,9.18c-1.34,1.23-2.75,2.75-4.09,4.61
						c-0.2,0.28-0.4,0.57-0.6,0.86c-0.21-0.3-0.41-0.58-0.63-0.86c-1.47-1.99-3.03-3.6-4.51-4.89c-6.8-5.91-16.14-8.9-27.78-8.9
						c-11.63,0-20.97,2.99-27.77,8.9c-5.12,4.45-11.22,12.76-11.22,27.1v103.99c0,14.34,6.1,22.65,11.22,27.1
						c6.8,5.91,16.14,8.9,27.77,8.9c11.64,0,20.98-2.99,27.78-8.9c1.51-1.31,3.11-2.97,4.61-5.02c0.21-0.28,0.41-0.56,0.62-0.86
						c0.19,0.3,0.4,0.58,0.6,0.86c1.5,2.05,3.11,3.71,4.62,5.02c6.79,5.91,16.14,8.9,27.77,8.9c14.63,0,23.46-6.34,28.29-11.66
						c1.66-1.82,3.37-4.12,4.91-6.95c7.17,12.36,18.59,18.61,34,18.61c11.4,0,20.55-3.09,27.19-9.18c1.34-1.23,2.75-2.75,4.09-4.61
						c0.2-0.28,0.41-0.58,0.6-0.88c0.2,0.3,0.42,0.6,0.63,0.88c1.47,1.99,3.04,3.6,4.52,4.89c6.79,5.91,16.14,8.9,27.77,8.9h33
						c25.92,0,44.5-7.4,56.82-22.64c0.55-0.67,1.08-1.36,1.59-2.07c0.26-0.35,0.52-0.7,0.76-1.06c0.11,0.43,0.22,0.84,0.34,1.25
						c2.12,7.56,6.16,12.53,9.72,15.62c6.79,5.91,16.13,8.9,27.77,8.9c11.63,0,20.98-2.99,27.77-8.9c3.53-3.06,7.52-7.96,9.66-15.4
						c0.12-0.38,0.22-0.76,0.32-1.15c0.23,0.36,0.48,0.71,0.75,1.06c0.63,0.89,1.3,1.76,1.99,2.61
						c12.41,15.33,30.9,22.78,56.51,22.78c19.74,0,35.68-4.54,47.36-13.5c4.38-3.37,9.17-8.16,13.03-14.83
						c0.18-0.3,0.35-0.61,0.51-0.92c0.2,0.33,0.41,0.65,0.61,0.97c1.24,1.93,2.56,3.76,3.97,5.5c12.42,15.33,30.9,22.78,56.51,22.78
						c25.95,0,44.55-7.47,56.86-22.84c11.7-14.59,17.14-35.62,17.14-66.16S866.55,744.78,854.85,730.19z M334.76,795.84
						c-0.01-0.05-0.01-0.09,0.01-0.09C334.76,795.77,334.75,795.8,334.76,795.84z"/>
				</g>
			</g>
			<g>
				<g>
					<path class="st57" d="M334.76,795.84c-0.01-0.04,0-0.07,0.01-0.09C334.75,795.75,334.75,795.79,334.76,795.84z"/>
				</g>
				<g>
					<path class="st57" d="M416.08,869.67c-0.19,0.3-0.4,0.6-0.6,0.88c-1.34,1.86-2.75,3.38-4.09,4.61
						c-6.64,6.09-15.79,9.18-27.19,9.18c-15.41,0-26.83-6.25-34-18.61c-1.54,2.83-3.25,5.13-4.91,6.95
						c-4.83,5.32-13.66,11.66-28.29,11.66c-11.63,0-20.98-2.99-27.77-8.9c-1.51-1.31-3.12-2.97-4.62-5.02
						c-0.2-0.28-0.41-0.56-0.6-0.86c-0.21,0.3-0.41,0.58-0.62,0.86c0.21,0.29,0.41,0.58,0.61,0.85c1.47,1.96,3.02,3.56,4.49,4.84
						c7.01,6.13,16.6,9.23,28.51,9.23c11.7,0,22.01-4.26,29.03-11.99c1.4-1.54,2.85-3.41,4.19-5.65
						c7.4,11.71,18.8,17.64,33.98,17.64c14.27,0,25.31-5.04,31.9-13.95c0.21-0.27,0.41-0.55,0.61-0.84
						C416.5,870.27,416.28,869.97,416.08,869.67z M416,721.43c-1.47-1.96-3.02-3.56-4.49-4.85c-7-6.13-16.59-9.23-28.51-9.23
						c-12.5,0-23.24,4.48-30.23,12.63c-1.13,1.32-2.16,2.7-3.07,4.15c-7.24-11.14-18.62-16.78-33.9-16.78
						c-14.27,0-25.31,5.04-31.9,13.94c-0.21,0.28-0.41,0.56-0.61,0.85c0.22,0.28,0.42,0.56,0.63,0.86c0.2-0.29,0.4-0.58,0.6-0.86
						c1.34-1.86,2.75-3.38,4.09-4.61c6.65-6.09,15.79-9.18,27.19-9.18c15.54,0,26.94,5.96,33.93,17.73c1.2-2.15,2.51-3.95,3.8-5.45
						c4.81-5.6,13.83-12.28,29.47-12.28c11.64,0,20.98,2.99,27.77,8.9c1.52,1.32,3.12,2.97,4.62,5.02c0.21,0.28,0.41,0.57,0.62,0.86
						c0.19-0.29,0.39-0.58,0.6-0.86C416.41,721.98,416.2,721.7,416,721.43z"/>
				</g>
			</g>
			<g>
				<g>
					<path class="st57" d="M541.17,858.57c-0.24,0.36-0.5,0.71-0.76,1.06c-0.51,0.71-1.04,1.4-1.59,2.07
						c-12.32,15.24-30.9,22.64-56.82,22.64h-33c-11.63,0-20.98-2.99-27.77-8.9c-1.48-1.29-3.05-2.9-4.52-4.89
						c-0.21-0.28-0.43-0.58-0.63-0.88c-0.19,0.3-0.4,0.6-0.6,0.88c0.21,0.29,0.41,0.57,0.62,0.84c1.44,1.91,2.95,3.46,4.39,4.72
						c7,6.13,16.6,9.23,28.51,9.23h33c26.31,0,45.18-7.56,57.68-23.12c0.37-0.46,0.73-0.92,1.08-1.39c0.25-0.33,0.5-0.67,0.75-1.01
						C541.39,859.41,541.28,859,541.17,858.57z M540.87,731.51c-0.44-0.59-0.91-1.18-1.38-1.75
						c-12.43-15.08-31.23-22.41-57.49-22.41h-33c-11.91,0-21.51,3.1-28.51,9.23c-1.47,1.29-3.02,2.89-4.49,4.85
						c-0.2,0.27-0.41,0.55-0.61,0.84c0.21,0.28,0.41,0.57,0.62,0.86c0.19-0.29,0.39-0.58,0.6-0.86c1.5-2.05,3.1-3.7,4.62-5.02
						c6.79-5.91,16.14-8.9,27.77-8.9h33c25.94,0,44.49,7.21,56.72,22.04c0.62,0.75,1.22,1.52,1.8,2.3c0.26,0.34,0.51,0.69,0.75,1.04
						c0.11-0.42,0.22-0.83,0.34-1.23C541.37,732.17,541.13,731.84,540.87,731.51z"/>
				</g>
			</g>
			<g>
				<g>
					<path class="st57" d="M616.75,858.89c-0.1,0.39-0.2,0.77-0.32,1.15c-2.14,7.44-6.13,12.34-9.66,15.4
						c-6.79,5.91-16.14,8.9-27.77,8.9c-11.64,0-20.98-2.99-27.77-8.9c-3.56-3.09-7.6-8.06-9.72-15.62
						c-0.12-0.41-0.23-0.82-0.34-1.25c-0.24,0.36-0.5,0.71-0.76,1.06c0.11,0.41,0.22,0.81,0.35,1.2c2.22,7.32,6.2,12.19,9.73,15.28
						c7,6.13,16.59,9.23,28.51,9.23c11.91,0,21.5-3.1,28.51-9.23c3.49-3.06,7.42-7.86,9.66-15.05c0.12-0.36,0.23-0.73,0.33-1.11
						C617.23,859.6,616.98,859.25,616.75,858.89z M617.17,731.63c-2.24-7.19-6.17-12-9.66-15.05c-7-6.13-16.6-9.23-28.51-9.23
						c-11.92,0-21.51,3.1-28.51,9.23c-3.47,3.04-7.38,7.8-9.62,14.93c-0.13,0.38-0.25,0.78-0.35,1.18c0.26,0.34,0.51,0.69,0.75,1.04
						c0.11-0.42,0.22-0.83,0.34-1.23c2.15-7.36,6.12-12.21,9.62-15.25c6.79-5.91,16.13-8.9,27.77-8.9c11.63,0,20.98,2.99,27.77,8.9
						c3.53,3.06,7.52,7.96,9.66,15.4c0.12,0.38,0.22,0.76,0.32,1.15c0.24-0.36,0.49-0.71,0.75-1.06
						C617.4,732.36,617.29,731.99,617.17,731.63z"/>
				</g>
			</g>
			<g>
				<g>
					<path class="st57" d="M736.9,856.09c-0.16,0.31-0.33,0.62-0.51,0.92c-3.86,6.67-8.65,11.46-13.03,14.83
						c-11.68,8.96-27.62,13.5-47.36,13.5c-25.61,0-44.1-7.45-56.51-22.78c-0.69-0.85-1.36-1.72-1.99-2.61
						c-0.27-0.35-0.52-0.7-0.75-1.06c-0.1,0.39-0.2,0.77-0.32,1.15c0.24,0.35,0.49,0.69,0.74,1.02c0.43,0.58,0.86,1.15,1.31,1.71
						c12.65,15.86,31.46,23.57,57.52,23.57c19.97,0,36.11-4.61,47.97-13.71c4.38-3.36,9.15-8.12,13.03-14.69
						c0.17-0.29,0.34-0.58,0.51-0.88C737.31,856.74,737.1,856.42,736.9,856.09z M728.3,725.7c-4.08-7.42-10.86-12.64-19.62-15.1
						c-9.66-2.82-20.65-4.25-32.68-4.25c-26.06,0-44.87,7.71-57.52,23.57c-0.45,0.56-0.88,1.13-1.31,1.71
						c-0.25,0.33-0.5,0.67-0.74,1.02c0.12,0.38,0.22,0.76,0.32,1.15c0.24-0.36,0.49-0.71,0.75-1.06c0.64-0.89,1.3-1.76,1.99-2.61
						c12.41-15.33,30.9-22.78,56.51-22.78c11.93,0,22.84,1.41,32.4,4.21c15.77,4.43,24.39,17.76,22.65,34.51
						c-0.12,1.17-0.29,2.36-0.52,3.57l-0.14,0.78c0.51-1.48,1.07-2.92,1.66-4.32c0.1-0.92,0.16-1.84,0.19-2.74
						C732.47,736.88,731.14,730.87,728.3,725.7z"/>
				</g>
			</g>
			<g>
				<g>
					<path class="st57" d="M797.99,706.35c-26.05,0-44.87,7.71-57.51,23.57c-3.2,4.02-5.94,8.48-8.24,13.44
						c-0.42,0.89-0.81,1.79-1.19,2.71c-0.12,1.17-0.29,2.36-0.52,3.57l-0.14,0.78c0.51-1.48,1.07-2.92,1.66-4.32
						c2.52-6.02,5.66-11.31,9.43-15.97c12.42-15.33,30.9-22.78,56.51-22.78c25.95,0,44.55,7.47,56.86,22.84
						c11.7,14.59,17.14,35.61,17.14,66.15s-5.44,51.57-17.14,66.16c-12.31,15.37-30.91,22.84-56.86,22.84
						c-25.61,0-44.09-7.45-56.51-22.78c-1.41-1.74-2.73-3.57-3.97-5.5c-0.2-0.32-0.41-0.64-0.61-0.97
						c-0.16,0.31-0.33,0.62-0.51,0.92c0.2,0.31,0.4,0.62,0.61,0.93c1.09,1.68,2.25,3.29,3.48,4.83
						c12.64,15.86,31.46,23.57,57.51,23.57c67.23,0,75-51.36,75-90C872.99,757.71,865.22,706.35,797.99,706.35z"/>
				</g>
			</g>
		</g>
		<g>
			<g>
				
					<linearGradient id="SVGID_00000129197328756074151650000011274576314069079687_" gradientUnits="userSpaceOnUse" x1="251.0054" y1="868.3434" x2="251.0054" y2="724.3454">
					<stop  offset="0" style="stop-color:#FFBB9F"/>
					<stop  offset="0.3715" style="stop-color:#FE839E"/>
					<stop  offset="1" style="stop-color:#D83680"/>
				</linearGradient>
				<path style="fill:url(#SVGID_00000129197328756074151650000011274576314069079687_);" d="M228.01,848.34v-104
					c0-13.4,7.6-20,23-20c15.4,0,23,6.6,23,20v104c0,13.4-7.6,20-23,20C235.61,868.34,228.01,861.74,228.01,848.34z"/>
				
					<linearGradient id="SVGID_00000032647989344127843460000010837894127677909677_" gradientUnits="userSpaceOnUse" x1="350.002" y1="868.3434" x2="350.002" y2="724.3454">
					<stop  offset="0" style="stop-color:#FFBB9F"/>
					<stop  offset="0.3715" style="stop-color:#FE839E"/>
					<stop  offset="1" style="stop-color:#D83680"/>
				</linearGradient>
				<path style="fill:url(#SVGID_00000032647989344127843460000010837894127677909677_);" d="M336,808.74l3,30.4
					c1.8,18.6-6.6,29.2-22,29.2c-15.4,0-23-6.6-23-20v-104c0-13.4,7.2-20,21.8-20c11.2,0,17.2,4,21,11.4l24.4,47.4
					c1.2,2.4,3.6,8.8,4.6,12.4c0.2,0.8,0.6,1,1.4,1c0.8,0,1.2-0.4,1-1.2c-0.6-3.6-1.8-10-2.2-12.6l-4.6-29.4c-3-19.6,6.2-29,21.6-29
					c15.4,0,23,6.6,23,20v104c0,13.4-7.2,20-21.8,20c-12,0-17.6-5-21.4-13l-22-47c-1.2-2.4-3.4-8.8-4.4-12.4
					c-0.2-0.8-0.8-1.2-1.6-1.2c-0.8,0-1.2,0.6-1,1.4C334.6,799.74,335.8,806.14,336,808.74z"/>
				
					<linearGradient id="SVGID_00000087403789007980256560000008616814810747298183_" gradientUnits="userSpaceOnUse" x1="483" y1="868.3434" x2="483" y2="724.3454">
					<stop  offset="0" style="stop-color:#FFBB9F"/>
					<stop  offset="0.3715" style="stop-color:#FE839E"/>
					<stop  offset="1" style="stop-color:#D83680"/>
				</linearGradient>
				<path style="fill:url(#SVGID_00000087403789007980256560000008616814810747298183_);" d="M426,848.34v-104c0-13.4,7.6-20,23-20
					h33c41,0,58,19.4,58,71.6c0,52-17,72.4-58,72.4h-33C433.6,868.34,426,861.74,426,848.34z M479.4,828.34
					c9.2,0,12.6-6.4,12.6-32.4c0-26-3.4-31.6-12.6-31.6H472v64H479.4z"/>
				
					<linearGradient id="SVGID_00000106147163460052733720000002343163868713030562_" gradientUnits="userSpaceOnUse" x1="578.9995" y1="868.3434" x2="578.9995" y2="724.3454">
					<stop  offset="0" style="stop-color:#FFBB9F"/>
					<stop  offset="0.3715" style="stop-color:#FE839E"/>
					<stop  offset="1" style="stop-color:#D83680"/>
				</linearGradient>
				<path style="fill:url(#SVGID_00000106147163460052733720000002343163868713030562_);" d="M556,848.34v-104c0-13.4,7.6-20,23-20
					c15.4,0,23,6.6,23,20v104c0,13.4-7.6,20-23,20C563.6,868.34,556,861.74,556,848.34z"/>
				
					<linearGradient id="SVGID_00000052106243484048010350000016988927302883530656_" gradientUnits="userSpaceOnUse" x1="672.9961" y1="869.3434" x2="672.9961" y2="723.3454">
					<stop  offset="0" style="stop-color:#FFBB9F"/>
					<stop  offset="0.3715" style="stop-color:#FE839E"/>
					<stop  offset="1" style="stop-color:#D83680"/>
				</linearGradient>
				<path style="fill:url(#SVGID_00000052106243484048010350000016988927302883530656_);" d="M686,817.74v-15c0-13.4,7-20,21-20
					c14,0,21,6.6,21,20v23.4c0,30.4-21,43.2-52,43.2c-40.2,0-58-20.6-58-73c0-52.4,17.8-73,58-73c12,0,21.2,1.6,28,3.6
					c9.4,2.6,12.6,10.2,10.8,19.8l-1.2,6.6c-1.4,8.6-5.6,11.8-12.8,11.8c-1.6,0-3.2-0.2-5-0.4c-6.4-1-12.4-1.4-15.2-1.4
					c-10.6,0-14.6,6.6-14.6,33c0,26.4,4,33,11.6,33C682.2,829.34,686,826.74,686,817.74z"/>
				
					<linearGradient id="SVGID_00000054963286507259309130000013653260153034547362_" gradientUnits="userSpaceOnUse" x1="797.9932" y1="869.3434" x2="797.9932" y2="723.3454">
					<stop  offset="0" style="stop-color:#FFBB9F"/>
					<stop  offset="0.3715" style="stop-color:#FE839E"/>
					<stop  offset="1" style="stop-color:#D83680"/>
				</linearGradient>
				<path style="fill:url(#SVGID_00000054963286507259309130000013653260153034547362_);" d="M797.99,723.35c41,0,58,20.6,58,73
					c0,52.4-17,73-58,73c-40.2,0-58-20.6-58-73C739.99,743.95,757.79,723.35,797.99,723.35z M797.99,829.34c6.6,0,10-6.6,10-33
					c0-26.4-3.4-33-10-33s-10,6.6-10,33C787.99,822.74,791.39,829.34,797.99,829.34z"/>
			</g>
			<g>
				<g>
					<path class="st1" d="M251,869.34c-15.92,0-24-7.07-24-21v-104c0-13.93,8.07-21,24-21c15.93,0,24,7.07,24,21v104
						C275,862.28,266.93,869.34,251,869.34z M251,725.35c-14.8,0-22,6.21-22,19v104c0,12.78,7.2,19,22,19c14.8,0,22-6.21,22-19v-104
						C273,731.56,265.81,725.35,251,725.35z"/>
				</g>
				<g>
					<path class="st1" d="M384.2,869.34c-11.11,0-17.78-4.06-22.3-13.57l-22-47c-1.2-2.41-3.43-8.85-4.46-12.56
						c-0.06-0.25-0.16-0.47-0.64-0.47c-0.06-0.03-0.06,0.04-0.03,0.16c0.78,3.5,2.02,10.03,2.23,12.75l3,30.39
						c0.98,10.14-1.03,18.29-5.81,23.55c-4.01,4.41-9.95,6.75-17.18,6.75c-15.92,0-24-7.07-24-21v-104c0-13.93,7.67-21,22.8-21
						c10.9,0,17.65,3.68,21.89,11.94l24.4,47.4c1.29,2.58,3.69,9.05,4.67,12.59c0.04,0.16,0.08,0.23,0.09,0.25
						c0-0.01,0.1,0.02,0.35,0.02c0.01,0,0.02,0,0.02,0c-0.29-1.7-0.68-3.87-1.06-6.01c-0.48-2.67-0.93-5.2-1.15-6.64l-4.6-29.4
						c-1.54-10.06-0.03-17.83,4.49-23.09c3.97-4.62,10.22-7.06,18.1-7.06c15.93,0,24,7.07,24,21v104
						C407,862.28,399.33,869.34,384.2,869.34z M334.8,793.74c1.28,0,2.27,0.75,2.57,1.96c0.99,3.58,3.19,9.92,4.32,12.2l22.01,47.02
						c4.19,8.82,10.13,12.42,20.49,12.42c14,0,20.8-6.21,20.8-19v-104c0-12.79-7.2-19-22-19c-7.27,0-13,2.2-16.58,6.36
						c-4.12,4.8-5.48,12.03-4.03,21.49l4.6,29.4c0.22,1.42,0.67,3.93,1.14,6.59c0.39,2.17,0.78,4.37,1.05,6
						c0.2,0.78-0.05,1.33-0.3,1.65c-0.25,0.33-0.75,0.71-1.69,0.71c-0.83,0-1.98-0.18-2.37-1.76c-1.01-3.63-3.41-9.96-4.52-12.2
						l-24.4-47.39c-3.91-7.61-9.92-10.86-20.11-10.86c-14,0-20.8,6.21-20.8,19v104c0,12.78,7.2,19,22,19
						c6.75,0,12.04-2.05,15.7-6.09c4.39-4.84,6.23-12.45,5.3-22.01l-3-30.42c-0.2-2.62-1.42-9.03-2.18-12.46
						c-0.17-0.69-0.05-1.37,0.34-1.87C333.54,794.01,334.12,793.74,334.8,793.74z"/>
				</g>
				<g>
					<path class="st1" d="M482,869.34h-33c-15.92,0-24-7.07-24-21v-104c0-13.93,8.07-21,24-21h33c21.47,0,35.82,5.27,45.15,16.59
						C536.6,751.4,541,769.2,541,795.94C541,848.08,523.91,869.34,482,869.34z M449,725.35c-14.8,0-22,6.21-22,19v104
						c0,12.78,7.2,19,22,19h33c20.74,0,34.59-5.19,43.6-16.33c9.14-11.31,13.4-28.81,13.4-55.07c0-50.8-15.98-70.6-57-70.6H449z
						 M479.4,829.34H471v-66h8.4c10.55,0,13.6,7.31,13.6,32.6C493,821.54,489.82,829.34,479.4,829.34z M473,827.34h6.4
						c7.86,0,11.6-4.7,11.6-31.4c0-26.18-3.58-30.6-11.6-30.6H473V827.34z"/>
				</g>
				<g>
					<path class="st1" d="M579,869.34c-15.92,0-24-7.07-24-21v-104c0-13.93,8.07-21,24-21c15.93,0,24,7.07,24,21v104
						C603,862.28,594.92,869.34,579,869.34z M579,725.35c-14.8,0-22,6.21-22,19v104c0,12.78,7.2,19,22,19c14.8,0,22-6.21,22-19v-104
						C601,731.56,593.8,725.35,579,725.35z"/>
				</g>
				<g>
					<path class="st1" d="M676,870.34c-41.35,0-59-22.13-59-74s17.64-74,59-74c10.55,0,20.07,1.22,28.28,3.64
						c9.31,2.58,13.51,10.21,11.5,20.94l-1.2,6.59c-1.42,8.72-5.67,12.62-13.78,12.62c-1.5,0-2.99-0.17-4.57-0.35l-0.54-0.06
						c-6.15-0.96-12.12-1.39-15.09-1.39c-9.21,0-13.6,4.79-13.6,32c0,26.65,4.06,32,10.6,32c4.98,0,7.4-3.47,7.4-10.6v-15
						c0-13.93,7.4-21,22-21c14.6,0,22,7.07,22,21v23.4c0,14.91-4.97,26.28-14.77,33.79C705.23,866.84,692.36,870.34,676,870.34z
						 M676,724.35c-40.49,0-57,20.86-57,72s16.51,72,57,72c23.27,0,51-7.32,51-42.2v-23.4c0-12.79-6.54-19-20-19
						c-13.46,0-20,6.21-20,19v15c0,10.41-5.11,12.6-9.4,12.6c-9.18,0-12.6-9.21-12.6-34c0-25.74,3.79-34,15.6-34
						c3.04,0,9.14,0.44,15.35,1.41l0.5,0.05c1.59,0.18,2.97,0.33,4.35,0.33c7.03,0,10.56-3.28,11.81-10.96l1.2-6.62
						c1.82-9.73-1.76-16.35-10.08-18.66C695.68,725.54,686.36,724.35,676,724.35z"/>
				</g>
				<g>
					<path class="st1" d="M797.99,870.34c-41.35,0-59-22.13-59-74s17.64-74,59-74c41.91,0,59,21.44,59,74
						S839.9,870.34,797.99,870.34z M797.99,724.35c-40.49,0-57,20.86-57,72s16.51,72,57,72c20.74,0,34.59-5.24,43.59-16.47
						c9.15-11.41,13.41-29.06,13.41-55.52s-4.26-44.11-13.41-55.52C832.58,729.58,818.73,724.35,797.99,724.35z M797.99,830.34
						c-8.12,0-11-8.9-11-34s2.88-34,11-34s11,8.9,11,34S806.11,830.34,797.99,830.34z M797.99,764.34c-5.56,0-9,5.35-9,32
						s3.44,32,9,32s9-5.35,9-32S803.55,764.34,797.99,764.34z"/>
				</g>
			</g>
		</g>
		<g>
			<g>
				<g>
					<path class="st8" d="M451.2,954.73c-2.88,0-5.71-0.33-8.4-0.99c-2.71-0.66-4.99-1.54-6.76-2.61l-0.75-0.46l4.46-10.08
						l0.97,0.56c1.52,0.88,3.24,1.6,5.12,2.14c1.87,0.53,3.71,0.8,5.46,0.8c1.01,0,1.79-0.06,2.34-0.19
						c0.6-0.14,0.84-0.31,0.91-0.38c0.1-0.09,0.12-0.16,0.12-0.26c0-0.1,0-0.31-0.47-0.55c-0.59-0.31-1.4-0.58-2.41-0.8
						c-1.1-0.24-2.31-0.49-3.61-0.77c-1.35-0.28-2.72-0.65-4.08-1.11c-1.4-0.47-2.71-1.11-3.88-1.89c-1.23-0.82-2.23-1.91-2.98-3.25
						c-0.75-1.35-1.14-3.02-1.14-4.98c0-2.28,0.65-4.38,1.93-6.25c1.27-1.86,3.17-3.36,5.65-4.46c2.44-1.08,5.49-1.62,9.07-1.62
						c2.33,0,4.67,0.25,6.93,0.74c2.29,0.5,4.39,1.28,6.23,2.31l0.77,0.44l-4.16,10.02l-0.96-0.48c-1.6-0.8-3.16-1.41-4.64-1.8
						c-1.46-0.39-2.9-0.59-4.28-0.59c-0.99,0-1.76,0.08-2.31,0.25c-0.61,0.18-0.83,0.38-0.89,0.46c-0.15,0.18-0.17,0.31-0.17,0.41
						c0,0.07,0,0.25,0.46,0.47c0.59,0.3,1.4,0.55,2.42,0.75c1.1,0.22,2.31,0.46,3.64,0.72c1.37,0.26,2.74,0.63,4.09,1.09
						c1.39,0.47,2.68,1.11,3.86,1.89c1.23,0.82,2.23,1.9,2.98,3.22c0.76,1.33,1.14,2.98,1.14,4.91c0,2.24-0.65,4.33-1.93,6.2
						c-1.27,1.86-3.16,3.37-5.62,4.48C457.87,954.17,454.81,954.73,451.2,954.73z"/>
					<path class="st9" d="M452.73,918.59c2.27,0,4.51,0.24,6.72,0.72c2.21,0.48,4.19,1.22,5.95,2.21l-3.41,8.21
						c-1.67-0.83-3.27-1.46-4.82-1.87c-1.55-0.42-3.06-0.62-4.54-0.62c-1.09,0-1.95,0.1-2.59,0.29c-0.64,0.19-1.1,0.45-1.37,0.77
						c-0.27,0.32-0.41,0.67-0.41,1.06c0,0.58,0.34,1.03,1.01,1.37s1.56,0.62,2.66,0.84c1.1,0.22,2.32,0.46,3.65,0.72
						c1.33,0.26,2.65,0.61,3.96,1.06c1.31,0.45,2.52,1.04,3.62,1.78c1.1,0.74,1.99,1.7,2.66,2.88s1.01,2.66,1.01,4.42
						c0,2.05-0.58,3.93-1.75,5.64c-1.17,1.71-2.9,3.09-5.21,4.13s-5.2,1.56-8.69,1.56c-2.82,0-5.54-0.32-8.16-0.96
						c-2.62-0.64-4.78-1.47-6.48-2.5l3.65-8.26c1.6,0.93,3.38,1.67,5.35,2.23c1.97,0.56,3.88,0.84,5.74,0.84
						c1.09,0,1.94-0.07,2.57-0.22s1.08-0.35,1.37-0.62s0.43-0.6,0.43-0.98c0-0.61-0.34-1.09-1.01-1.44s-1.56-0.65-2.66-0.89
						c-1.1-0.24-2.31-0.5-3.62-0.77c-1.31-0.27-2.63-0.63-3.96-1.08c-1.33-0.45-2.54-1.04-3.65-1.78c-1.1-0.74-1.99-1.71-2.66-2.9
						c-0.67-1.2-1.01-2.7-1.01-4.49c0-2.08,0.58-3.98,1.75-5.69c1.17-1.71,2.91-3.08,5.23-4.1S449.28,918.59,452.73,918.59
						 M452.73,916.59c-3.72,0-6.91,0.57-9.47,1.71c-2.66,1.17-4.7,2.79-6.08,4.81c-1.39,2.04-2.1,4.33-2.1,6.81
						c0,2.13,0.42,3.97,1.26,5.47c0.83,1.47,1.94,2.68,3.3,3.59c1.24,0.83,2.63,1.51,4.12,2.01c1.39,0.47,2.8,0.86,4.19,1.14
						c1.3,0.27,2.51,0.52,3.6,0.76c0.25,0.05,0.49,0.11,0.71,0.17c-0.28,0.02-0.6,0.03-0.98,0.03c-1.66,0-3.41-0.26-5.19-0.76
						c-1.8-0.51-3.45-1.2-4.9-2.04l-1.93-1.12l-0.9,2.04l-3.65,8.26l-0.71,1.61l1.51,0.91c1.86,1.13,4.23,2.04,7.04,2.73
						c2.77,0.68,5.67,1.02,8.63,1.02c3.75,0,6.95-0.58,9.51-1.74c2.63-1.19,4.66-2.81,6.04-4.82c1.39-2.04,2.1-4.32,2.1-6.77
						c0-2.1-0.43-3.92-1.27-5.4c-0.82-1.45-1.93-2.65-3.29-3.56c-1.24-0.83-2.62-1.5-4.09-2c-1.4-0.48-2.82-0.86-4.23-1.13
						c-1.32-0.25-2.53-0.49-3.63-0.72c-0.42-0.08-0.8-0.18-1.13-0.28c0.34-0.05,0.81-0.08,1.43-0.08c1.29,0,2.64,0.19,4.02,0.56
						c1.41,0.38,2.91,0.96,4.45,1.73l1.92,0.96l0.82-1.98l3.41-8.21l0.68-1.64l-1.55-0.87c-1.93-1.09-4.12-1.9-6.51-2.42
						C457.54,916.85,455.14,916.59,452.73,916.59L452.73,916.59z"/>
				</g>
				<g>
					<polygon class="st8" points="485.62,953.96 485.62,929.14 475.78,929.14 475.78,918.36 508.79,918.36 508.79,929.14 
						498.95,929.14 498.95,953.96 					"/>
					<path class="st9" d="M507.79,919.36v8.79h-9.84v24.82h-11.33v-24.82h-9.84v-8.79H507.79 M509.79,917.36h-2h-31.01h-2v2v8.79v2
						h2h7.84v22.82v2h2h11.33h2v-2v-22.82h7.84h2v-2v-8.79V917.36L509.79,917.36z"/>
				</g>
				<g>
					<path class="st8" d="M537.45,954.73c-2.83,0-5.49-0.46-7.91-1.36c-2.43-0.91-4.57-2.21-6.36-3.88s-3.2-3.66-4.19-5.92
						c-1-2.26-1.5-4.75-1.5-7.41c0-2.69,0.51-5.19,1.5-7.44c1-2.24,2.41-4.22,4.19-5.89c1.79-1.67,3.93-2.97,6.36-3.88
						c2.42-0.9,5.08-1.36,7.91-1.36c2.86,0,5.53,0.46,7.94,1.36c2.41,0.9,4.54,2.21,6.33,3.88s3.2,3.65,4.19,5.89
						c1,2.25,1.5,4.75,1.5,7.44c0,2.66-0.5,5.15-1.5,7.41c-0.99,2.26-2.41,4.25-4.19,5.92c-1.79,1.67-3.92,2.97-6.33,3.88
						C542.98,954.27,540.31,954.73,537.45,954.73z M537.45,928.76c-0.92,0-1.78,0.17-2.56,0.5c-0.78,0.33-1.48,0.81-2.06,1.42
						c-0.59,0.62-1.06,1.39-1.39,2.3c-0.34,0.92-0.51,1.99-0.51,3.18s0.17,2.26,0.51,3.18c0.33,0.91,0.8,1.68,1.39,2.3
						c0.59,0.62,1.28,1.09,2.07,1.43c0.78,0.33,1.65,0.5,2.56,0.5s1.78-0.17,2.56-0.5c0.78-0.33,1.48-0.81,2.07-1.43
						c0.59-0.62,1.06-1.39,1.39-2.29c0.34-0.92,0.51-1.99,0.51-3.18s-0.17-2.26-0.51-3.18c-0.33-0.91-0.8-1.68-1.39-2.3
						c-0.59-0.62-1.29-1.1-2.07-1.42C539.23,928.93,538.37,928.76,537.45,928.76z"/>
					<path class="st9" d="M537.45,918.59c2.75,0,5.28,0.43,7.58,1.3c2.3,0.86,4.3,2.09,6,3.67s3.02,3.44,3.96,5.57
						c0.94,2.13,1.42,4.47,1.42,7.03c0,2.53-0.47,4.86-1.42,7.01c-0.94,2.14-2.26,4.01-3.96,5.59s-3.7,2.81-6,3.67
						c-2.3,0.86-4.83,1.3-7.58,1.3c-2.72,0-5.24-0.43-7.56-1.3c-2.32-0.86-4.33-2.09-6.02-3.67s-3.02-3.45-3.96-5.59
						c-0.94-2.14-1.42-4.48-1.42-7.01c0-2.56,0.47-4.9,1.42-7.03s2.26-3.98,3.96-5.57s3.7-2.81,6.02-3.67
						C532.21,919.02,534.73,918.59,537.45,918.59 M537.45,944.56c1.06,0,2.04-0.19,2.95-0.58c0.91-0.38,1.71-0.94,2.4-1.66
						c0.69-0.72,1.22-1.6,1.61-2.64c0.38-1.04,0.58-2.21,0.58-3.53s-0.19-2.49-0.58-3.53c-0.38-1.04-0.92-1.92-1.61-2.64
						c-0.69-0.72-1.49-1.27-2.4-1.66s-1.9-0.58-2.95-0.58c-1.06,0-2.04,0.19-2.95,0.58c-0.91,0.38-1.71,0.94-2.4,1.66
						c-0.69,0.72-1.22,1.6-1.61,2.64c-0.38,1.04-0.58,2.22-0.58,3.53s0.19,2.49,0.58,3.53c0.38,1.04,0.92,1.92,1.61,2.64
						c0.69,0.72,1.49,1.27,2.4,1.66C535.41,944.37,536.4,944.56,537.45,944.56 M537.45,916.59c-2.95,0-5.73,0.48-8.26,1.42
						c-2.56,0.95-4.81,2.32-6.69,4.08c-1.89,1.76-3.37,3.85-4.42,6.22c-1.05,2.37-1.59,5.01-1.59,7.84c0,2.8,0.53,5.43,1.59,7.81
						c1.05,2.38,2.54,4.49,4.43,6.25c1.88,1.76,4.14,3.13,6.69,4.08c2.53,0.94,5.31,1.42,8.26,1.42c2.98,0,5.77-0.48,8.29-1.42
						c2.54-0.95,4.78-2.32,6.66-4.08c1.89-1.76,3.38-3.86,4.43-6.25c1.05-2.39,1.58-5.02,1.58-7.81c0-2.83-0.53-5.47-1.59-7.84
						c-1.05-2.37-2.54-4.46-4.42-6.22c-1.88-1.76-4.13-3.13-6.66-4.08C543.22,917.07,540.43,916.59,537.45,916.59L537.45,916.59z
						 M537.45,942.56c-0.79,0-1.5-0.14-2.17-0.42c-0.66-0.28-1.23-0.67-1.73-1.19c-0.5-0.53-0.89-1.16-1.18-1.95
						c-0.3-0.81-0.45-1.76-0.45-2.83c0-1.07,0.15-2.02,0.45-2.84c0.29-0.79,0.68-1.43,1.18-1.95c0.5-0.53,1.07-0.92,1.73-1.2
						c0.67-0.28,1.38-0.42,2.18-0.42c0.79,0,1.51,0.14,2.18,0.42c0.66,0.28,1.23,0.67,1.73,1.19c0.49,0.52,0.89,1.17,1.18,1.95
						c0.3,0.81,0.45,1.77,0.45,2.84c0,1.07-0.15,2.02-0.45,2.83c-0.29,0.79-0.68,1.43-1.18,1.95c-0.5,0.52-1.07,0.91-1.73,1.19
						C538.96,942.42,538.25,942.56,537.45,942.56L537.45,942.56z"/>
				</g>
				<g>
					<path class="st8" d="M589.72,953.96l-5.7-8.45h-1.55v8.45h-13.33v-35.6h17.18c3.28,0,6.15,0.55,8.54,1.63
						c2.46,1.09,4.39,2.69,5.73,4.75c1.35,2.07,2.03,4.52,2.03,7.29c0,2.76-0.68,5.2-2.04,7.25c-0.99,1.48-2.28,2.71-3.85,3.68
						l7.5,11H589.72z M585.6,934.97c1.29,0,2.24-0.27,2.8-0.79c0.55-0.51,0.81-1.21,0.81-2.15c0-0.93-0.27-1.63-0.82-2.15
						c-0.56-0.52-1.5-0.79-2.79-0.79h-3.13v5.88H585.6z"/>
					<path class="st9" d="M586.32,919.36c3.13,0,5.85,0.51,8.13,1.54c2.29,1.02,4.06,2.48,5.31,4.39c1.24,1.9,1.87,4.15,1.87,6.74
						s-0.63,4.82-1.87,6.7c-1.09,1.63-2.57,2.93-4.46,3.89l7.05,10.34h-12.1l-5.7-8.45h-3.08v8.45h-11.33v-33.6H586.32
						 M581.47,935.97h4.13c1.57,0,2.73-0.36,3.48-1.06s1.13-1.66,1.13-2.88c0-1.21-0.38-2.17-1.13-2.88
						c-0.75-0.7-1.91-1.06-3.48-1.06h-4.13V935.97 M586.32,917.36h-16.18h-2v2v33.6v2h2h11.33h2v-2v-6.45h0.02l5.11,7.57l0.59,0.88
						h1.06h12.1h3.78l-2.13-3.13l-5.87-8.6c1.31-0.94,2.41-2.07,3.29-3.39c1.47-2.22,2.21-4.85,2.21-7.81c0-2.97-0.74-5.6-2.2-7.83
						c-1.46-2.23-3.53-3.95-6.17-5.12C592.75,917.94,589.74,917.36,586.32,917.36L586.32,917.36z M583.47,930.09h2.13
						c1,0,1.75,0.19,2.12,0.52c0.21,0.2,0.49,0.57,0.49,1.42c0,0.86-0.28,1.22-0.49,1.42c-0.36,0.34-1.11,0.52-2.12,0.52h-2.13
						V930.09L583.47,930.09z"/>
				</g>
				<g>
					<polygon class="st8" points="614.5,953.96 614.5,918.36 643.81,918.36 643.81,928.9 627.64,928.9 627.64,930.84 641.85,930.84 
						641.85,941 627.64,941 627.64,943.41 644.44,943.41 644.44,953.96 					"/>
					<path class="st9" d="M642.81,919.36v8.54h-16.17v3.94h14.21V940h-14.21v4.41h16.8v8.55H615.5v-33.6H642.81 M644.81,917.36h-2
						H615.5h-2v2v33.6v2h2h27.94h2v-2v-8.55v-2h-2h-14.8V942h12.21h2v-2v-8.16v-1.94h1.96v-2v-8.54V917.36L644.81,917.36z"/>
				</g>
			</g>
		</g>
	</g>
</g>
<g>
	<path class="st76" d="M774.18,581.86l-53.9-15.2c-3.44-0.97-5.46-4.58-4.49-8.02v0c0.97-3.44,4.58-5.46,8.02-4.49l53.9,15.2
		c3.44,0.97,5.46,4.58,4.49,8.02v0C781.23,580.8,777.63,582.83,774.18,581.86z"/>
	<path class="st76" d="M776.2,511.15l-51.63,21.68c-3.3,1.38-7.13-0.18-8.51-3.48l0,0c-1.38-3.3,0.18-7.13,3.48-8.51l51.63-21.68
		c3.3-1.38,7.13,0.18,8.51,3.48l0,0C781.06,505.94,779.49,509.77,776.2,511.15z"/>
</g>
<g>
	<path class="st76" d="M305.82,581.86l53.9-15.2c3.44-0.97,5.46-4.58,4.49-8.02v0c-0.97-3.44-4.58-5.46-8.02-4.49l-53.9,15.2
		c-3.44,0.97-5.46,4.58-4.49,8.02v0C298.77,580.8,302.37,582.83,305.82,581.86z"/>
	<path class="st76" d="M303.8,511.15l51.63,21.68c3.3,1.38,7.13-0.18,8.51-3.48h0c1.38-3.3-0.18-7.13-3.48-8.51l-51.63-21.68
		c-3.3-1.38-7.13,0.18-8.51,3.48l0,0C298.94,505.94,300.51,509.77,303.8,511.15z"/>
</g>
<path class="st69" d="M227.98,299.59c0,0,4.95,4.68,13.68,10.1c8.73,5.43,21.22,11.61,36.32,14.61c3.14,0.62,7.83,1.26,12.55-0.86
	c0.68-0.3,1.24-0.61,1.67-0.86c0.23-0.44,0.5-1.02,0.77-1.71c1.85-4.84,0.94-9.48,0.14-12.58c-3.87-14.9-10.75-27.02-16.68-35.42
	c-5.92-8.41-10.87-13.08-10.87-13.08c-11.13-11.41-29.32,5.41-31.7,7.71C231.71,270.01,215.95,289.14,227.98,299.59z"/>
<path class="st69" d="M237.65,356.45c0,0,4.62,0.87,11.65,1.04c7.04,0.18,16.48-0.35,26.16-3.13c2.01-0.58,4.9-1.59,6.73-3.93
	c0.26-0.33,0.46-0.64,0.6-0.88c-0.04-0.28-0.12-0.63-0.24-1.04c-0.85-2.85-3.18-4.84-4.84-6.11c-8-6.1-16.61-10.02-23.23-12.41
	c-6.62-2.4-11.23-3.26-11.23-3.26c-10.73-2.39-14.39,10.83-14.83,12.6C228.17,341.14,226.79,354.78,237.65,356.45z"/>
<circle class="st62" cx="85.75" cy="687" r="19"/>
<circle class="st62" cx="296.25" cy="938.86" r="7"/>
<circle class="st62" cx="214.75" cy="199" r="7"/>
<circle class="st62" cx="53.75" cy="532" r="11"/>
<circle class="st62" cx="132.75" cy="606" r="7"/>
<circle class="st62" cx="92.75" cy="353" r="7"/>
<g>
	<path class="st77" d="M161.72,787.44c-16.24,3.9-18.87,7.06-22.12,26.54c-3.25-19.49-5.88-22.65-22.12-26.54
		c16.24-3.9,18.87-7.06,22.12-26.54C142.85,780.38,145.48,783.54,161.72,787.44z"/>
	<path class="st58" d="M161.72,787.44c-16.24,3.9-18.87,7.06-22.12,26.54c-3.25-19.49-5.88-22.65-22.12-26.54
		c16.24-3.9,18.87-7.06,22.12-26.54C142.85,780.38,145.48,783.54,161.72,787.44z"/>
</g>
<g>
	<path class="st77" d="M143.13,293.44c16.24,3.9,18.87,7.06,22.12,26.54c3.25-19.49,5.88-22.65,22.12-26.54
		c-16.24-3.9-18.87-7.06-22.12-26.54C162,286.38,159.37,289.54,143.13,293.44z"/>
	<path class="st58" d="M143.13,293.44c16.24,3.9,18.87,7.06,22.12,26.54c3.25-19.49,5.88-22.65,22.12-26.54
		c-16.24-3.9-18.87-7.06-22.12-26.54C162,286.38,159.37,289.54,143.13,293.44z"/>
</g>
<g>
	<path class="st69" d="M852.02,299.59c0,0-4.95,4.68-13.68,10.1c-8.73,5.43-21.22,11.61-36.32,14.61
		c-3.14,0.62-7.83,1.26-12.55-0.86c-0.68-0.3-1.24-0.61-1.67-0.86c-0.23-0.44-0.5-1.02-0.77-1.71c-1.85-4.84-0.94-9.48-0.14-12.58
		c3.87-14.9,10.75-27.02,16.68-35.42c5.92-8.41,10.87-13.08,10.87-13.08c11.13-11.41,29.32,5.41,31.7,7.71
		C848.29,270.01,864.05,289.14,852.02,299.59z"/>
	<path class="st69" d="M842.35,356.45c0,0-4.62,0.87-11.65,1.04c-7.04,0.18-16.48-0.35-26.16-3.13c-2.01-0.58-4.9-1.59-6.73-3.93
		c-0.26-0.33-0.46-0.64-0.6-0.88c0.04-0.28,0.12-0.63,0.24-1.04c0.85-2.85,3.18-4.84,4.84-6.11c8-6.1,16.61-10.02,23.23-12.41
		c6.62-2.4,11.23-3.26,11.23-3.26c10.73-2.39,14.39,10.83,14.83,12.6C851.83,341.14,853.21,354.78,842.35,356.45z"/>
	<circle class="st62" cx="994.25" cy="687" r="19"/>
	<circle class="st62" cx="783.75" cy="938.86" r="7"/>
	<circle class="st62" cx="865.25" cy="199" r="7"/>
	<circle class="st62" cx="1026.25" cy="532" r="11"/>
	<circle class="st62" cx="947.25" cy="606" r="7"/>
	<circle class="st62" cx="987.25" cy="353" r="7"/>
	<g>
		<path class="st77" d="M885.28,670.44c16.24,3.9,18.87,7.06,22.12,26.54c3.25-19.49,5.88-22.65,22.12-26.54
			c-16.24-3.9-18.87-7.06-22.12-26.54C904.15,663.38,901.52,666.54,885.28,670.44z"/>
		<path class="st58" d="M885.28,670.44c16.24,3.9,18.87,7.06,22.12,26.54c3.25-19.49,5.88-22.65,22.12-26.54
			c-16.24-3.9-18.87-7.06-22.12-26.54C904.15,663.38,901.52,666.54,885.28,670.44z"/>
	</g>
	<g>
		<path class="st77" d="M936.87,293.44c-16.24,3.9-18.87,7.06-22.12,26.54c-3.25-19.49-5.88-22.65-22.12-26.54
			c16.24-3.9,18.87-7.06,22.12-26.54C918,286.38,920.63,289.54,936.87,293.44z"/>
		<path class="st58" d="M936.87,293.44c-16.24,3.9-18.87,7.06-22.12,26.54c-3.25-19.49-5.88-22.65-22.12-26.54
			c16.24-3.9,18.87-7.06,22.12-26.54C918,286.38,920.63,289.54,936.87,293.44z"/>
	</g>
	<g>
		<g>
			<g>
				<path class="st78" d="M871.93,845.5c-2.46,3.36-8.33,12.77-4.82,22.19c0,0,0.42,0.27,5.1-0.68c1,4.67,1.42,4.94,1.42,4.94
					c10.75-0.61,17.18-11.05,18.78-13.99c1.6,2.94,8.03,13.39,18.78,13.99c0,0,0.41-0.27,1.42-4.94c4.68,0.95,5.1,0.68,5.1,0.68
					c3.51-9.42-2.35-18.83-4.82-22.19c4.05-1.22,14.3-5.19,17.18-14.76c0,0-0.17-0.47-4.48-2.53c2.03-4.33,1.86-4.79,1.86-4.79
					c-8.5-5.73-19.28-1.97-22.93-0.4c0.2-4.31-0.15-15.14-8.12-21.01c0,0-0.5,0-3.89,3.36c-3.39-3.36-3.89-3.36-3.89-3.36
					c-8.02,5.91-8.33,16.84-8.12,21.09c-3.45-1.51-14.45-5.5-23.11,0.32c0,0-0.17,0.46,1.85,4.79c-4.31,2.07-4.48,2.54-4.48,2.54
					C857.63,840.31,867.88,844.28,871.93,845.5z"/>
				<path class="st79" d="M911.07,873.94c-9.31-0.53-15.57-7.6-18.67-12.17c-3.09,4.56-9.36,11.64-18.67,12.17l-0.66,0.04
					l-0.55-0.36c-0.49-0.32-0.96-0.63-1.84-4.29c-3.7,0.65-4.17,0.35-4.66,0.04l-0.56-0.36l-0.23-0.62
					c-3.22-8.65,0.62-17.11,3.58-21.84c-5.2-1.99-13.32-6.42-15.97-15.23l-0.19-0.63l0.22-0.62c0.2-0.55,0.39-1.08,3.74-2.79
					c-1.51-3.45-1.32-3.96-1.11-4.54l0.22-0.61l0.54-0.36c7.74-5.21,17.09-3.3,22.2-1.58c0.18-5.58,1.71-14.45,8.95-19.78l0.53-0.39
					h0.66c0.59,0,1.15,0,3.89,2.58c2.74-2.58,3.3-2.58,3.89-2.58h0.66l0.53,0.39c7.21,5.32,8.76,14.16,8.95,19.71
					c5.37-1.8,14.4-3.49,22.03,1.65l0.54,0.37l0.22,0.61c0.2,0.56,0.39,1.09-1.12,4.54c3.35,1.71,3.54,2.24,3.74,2.79l0.22,0.62
					l-0.19,0.63c-2.65,8.81-10.77,13.24-15.97,15.23c2.96,4.73,6.79,13.2,3.57,21.84l-0.23,0.62l-0.55,0.36
					c-0.51,0.33-0.96,0.63-4.67-0.03c-0.88,3.65-1.35,3.96-1.83,4.28l-0.55,0.37L911.07,873.94z M894.16,857
					c1.5,2.75,6.91,11.47,15.71,12.8c0.19-0.65,0.44-1.67,0.78-3.22l0.42-1.93l1.94,0.39c1.56,0.32,2.59,0.48,3.26,0.57
					c2.14-7.97-2.71-15.82-4.99-18.94l-1.67-2.28l2.71-0.81c3.69-1.11,12.26-4.44,15.36-12.06c-0.59-0.33-1.52-0.82-2.95-1.51
					l-1.79-0.86l0.84-1.8c0.67-1.44,1.08-2.4,1.32-3.03c-7.6-4.12-16.98-0.69-19.79,0.52l-2.94,1.26l0.15-3.19
					c0.18-3.82-0.1-12.95-6.2-18.4c-0.51,0.44-1.28,1.15-2.41,2.27l-1.41,1.39l-1.41-1.39c-1.13-1.12-1.9-1.83-2.41-2.27
					c-6.12,5.47-6.38,14.64-6.19,18.47l0.16,3.23l-2.96-1.3c-2.83-1.24-12.28-4.76-19.96-0.59c0.24,0.63,0.65,1.59,1.32,3.03
					l0.84,1.79l-1.78,0.86c-1.43,0.69-2.36,1.18-2.95,1.51c3.1,7.62,11.67,10.96,15.36,12.06l2.71,0.81l-1.67,2.28
					c-2.29,3.12-7.14,10.97-5,18.94c0.67-0.09,1.71-0.26,3.27-0.58l1.94-0.39l0.41,1.94c0.33,1.55,0.59,2.57,0.78,3.21
					c8.8-1.34,14.21-10.05,15.71-12.8l1.76-3.22L894.16,857z M925.44,823.26L925.44,823.26L925.44,823.26z"/>
			</g>
		</g>
		<g>
			<g>
				<path class="st24" d="M871.93,845.5c-2.46,3.36-8.33,12.77-4.82,22.19c0,0,0.42,0.27,5.1-0.68c1,4.67,1.42,4.94,1.42,4.94
					c10.75-0.61,17.18-11.05,18.78-13.99c1.6,2.94,8.03,13.39,18.78,13.99c0,0,0.41-0.27,1.42-4.94c4.68,0.95,5.1,0.68,5.1,0.68
					c3.51-9.42-2.35-18.83-4.82-22.19c4.05-1.22,14.3-5.19,17.18-14.76c0,0-0.17-0.47-4.48-2.53c2.03-4.33,1.86-4.79,1.86-4.79
					c-8.5-5.73-19.28-1.97-22.93-0.4c0.2-4.31-0.15-15.14-8.12-21.01c0,0-0.5,0-3.89,3.36c-3.39-3.36-3.89-3.36-3.89-3.36
					c-8.02,5.91-8.33,16.84-8.12,21.09c-3.45-1.51-14.45-5.5-23.11,0.32c0,0-0.17,0.46,1.85,4.79c-4.31,2.07-4.48,2.54-4.48,2.54
					C857.63,840.31,867.88,844.28,871.93,845.5z"/>
				<path class="st1" d="M911.07,873.94c-9.31-0.53-15.57-7.6-18.67-12.17c-3.09,4.56-9.36,11.64-18.67,12.17l-0.66,0.04l-0.55-0.36
					c-0.49-0.32-0.96-0.63-1.84-4.29c-3.7,0.65-4.17,0.35-4.66,0.04l-0.56-0.36l-0.23-0.62c-3.22-8.65,0.62-17.11,3.58-21.84
					c-5.2-1.99-13.32-6.42-15.97-15.23l-0.19-0.63l0.22-0.62c0.2-0.55,0.39-1.08,3.74-2.79c-1.51-3.45-1.32-3.96-1.11-4.54
					l0.22-0.61l0.54-0.36c7.74-5.21,17.09-3.3,22.2-1.58c0.18-5.58,1.71-14.45,8.95-19.78l0.53-0.39h0.66c0.59,0,1.15,0,3.89,2.58
					c2.74-2.58,3.3-2.58,3.89-2.58h0.66l0.53,0.39c7.21,5.32,8.76,14.16,8.95,19.71c5.37-1.8,14.4-3.49,22.03,1.65l0.54,0.37
					l0.22,0.61c0.2,0.56,0.39,1.09-1.12,4.54c3.35,1.71,3.54,2.24,3.74,2.79l0.22,0.62l-0.19,0.63
					c-2.65,8.81-10.77,13.24-15.97,15.23c2.96,4.73,6.79,13.2,3.57,21.84l-0.23,0.62l-0.55,0.36c-0.51,0.33-0.96,0.63-4.67-0.03
					c-0.88,3.65-1.35,3.96-1.83,4.28l-0.55,0.37L911.07,873.94z M894.16,857c1.5,2.75,6.91,11.47,15.71,12.8
					c0.19-0.65,0.44-1.67,0.78-3.22l0.42-1.93l1.94,0.39c1.56,0.32,2.59,0.48,3.26,0.57c2.14-7.97-2.71-15.82-4.99-18.94l-1.67-2.28
					l2.71-0.81c3.69-1.11,12.26-4.44,15.36-12.06c-0.59-0.33-1.52-0.82-2.95-1.51l-1.79-0.86l0.84-1.8c0.67-1.44,1.08-2.4,1.32-3.03
					c-7.6-4.12-16.98-0.69-19.79,0.52l-2.94,1.26l0.15-3.19c0.18-3.82-0.1-12.95-6.2-18.4c-0.51,0.44-1.28,1.15-2.41,2.27
					l-1.41,1.39l-1.41-1.39c-1.13-1.12-1.9-1.83-2.41-2.27c-6.12,5.47-6.38,14.64-6.19,18.47l0.16,3.23l-2.96-1.3
					c-2.83-1.24-12.28-4.76-19.96-0.59c0.24,0.63,0.65,1.59,1.32,3.03l0.84,1.79l-1.78,0.86c-1.43,0.69-2.36,1.18-2.95,1.51
					c3.1,7.62,11.67,10.96,15.36,12.06l2.71,0.81l-1.67,2.28c-2.29,3.12-7.14,10.97-5,18.94c0.67-0.09,1.71-0.26,3.27-0.58
					l1.94-0.39l0.41,1.94c0.33,1.55,0.59,2.57,0.78,3.21c8.8-1.34,14.21-10.05,15.71-12.8l1.76-3.22L894.16,857z M925.44,823.26
					L925.44,823.26L925.44,823.26z"/>
			</g>
		</g>
	</g>
</g>
<radialGradient id="SVGID_00000150810290546323846610000016626086401413834154_" cx="240.4446" cy="740" r="6.8822" gradientUnits="userSpaceOnUse">
	<stop  offset="0" style="stop-color:#FFFFFF"/>
	<stop  offset="0.9866" style="stop-color:#FFFFFF"/>
</radialGradient>
<path style="fill:none;stroke:url(#SVGID_00000150810290546323846610000016626086401413834154_);stroke-width:5;stroke-linecap:round;stroke-miterlimit:10;" d="
	M236.96,745.12c0,0-1.28-10.24,7.04-10.24"/>
<radialGradient id="SVGID_00000173880882018543723360000003855087641337019578_" cx="236.8893" cy="753.4194" r="2.9676" gradientUnits="userSpaceOnUse">
	<stop  offset="0" style="stop-color:#FFFFFF"/>
	<stop  offset="0.9866" style="stop-color:#FFFFFF"/>
</radialGradient>
<line style="fill:none;stroke:url(#SVGID_00000173880882018543723360000003855087641337019578_);stroke-width:5;stroke-linecap:round;stroke-miterlimit:10;" x1="236.89" y1="752.55" x2="236.89" y2="754.29"/>
<radialGradient id="SVGID_00000037670792891361665620000012580395340178222260_" cx="306.4446" cy="740" r="6.8822" gradientUnits="userSpaceOnUse">
	<stop  offset="0" style="stop-color:#FFFFFF"/>
	<stop  offset="0.9866" style="stop-color:#FFFFFF"/>
</radialGradient>
<path style="fill:none;stroke:url(#SVGID_00000037670792891361665620000012580395340178222260_);stroke-width:5;stroke-linecap:round;stroke-miterlimit:10;" d="
	M302.96,745.12c0,0-1.28-10.24,7.04-10.24"/>
<radialGradient id="SVGID_00000072238846035419664190000008500366019631504004_" cx="302.8893" cy="753.4194" r="2.9676" gradientUnits="userSpaceOnUse">
	<stop  offset="0" style="stop-color:#FFFFFF"/>
	<stop  offset="0.9866" style="stop-color:#FFFFFF"/>
</radialGradient>
<line style="fill:none;stroke:url(#SVGID_00000072238846035419664190000008500366019631504004_);stroke-width:5;stroke-linecap:round;stroke-miterlimit:10;" x1="302.89" y1="752.55" x2="302.89" y2="754.29"/>
<radialGradient id="SVGID_00000071529751881041203450000004084863892964799912_" cx="373.4446" cy="740" r="6.8822" gradientUnits="userSpaceOnUse">
	<stop  offset="0" style="stop-color:#FFFFFF"/>
	<stop  offset="0.9866" style="stop-color:#FFFFFF"/>
</radialGradient>
<path style="fill:none;stroke:url(#SVGID_00000071529751881041203450000004084863892964799912_);stroke-width:5;stroke-linecap:round;stroke-miterlimit:10;" d="
	M369.96,745.12c0,0-1.28-10.24,7.04-10.24"/>
<radialGradient id="SVGID_00000073700469419988338070000014054603100996829071_" cx="369.8893" cy="753.4194" r="2.9676" gradientUnits="userSpaceOnUse">
	<stop  offset="0" style="stop-color:#FFFFFF"/>
	<stop  offset="0.9866" style="stop-color:#FFFFFF"/>
</radialGradient>
<line style="fill:none;stroke:url(#SVGID_00000073700469419988338070000014054603100996829071_);stroke-width:5;stroke-linecap:round;stroke-miterlimit:10;" x1="369.89" y1="752.55" x2="369.89" y2="754.29"/>
<radialGradient id="SVGID_00000032625326962306398530000002447785657496143759_" cx="438.4446" cy="740" r="6.8822" gradientUnits="userSpaceOnUse">
	<stop  offset="0" style="stop-color:#FFFFFF"/>
	<stop  offset="0.9866" style="stop-color:#FFFFFF"/>
</radialGradient>
<path style="fill:none;stroke:url(#SVGID_00000032625326962306398530000002447785657496143759_);stroke-width:5;stroke-linecap:round;stroke-miterlimit:10;" d="
	M434.96,745.12c0,0-1.28-10.24,7.04-10.24"/>
<radialGradient id="SVGID_00000050651569255997481600000000910997711093279638_" cx="434.8893" cy="753.4194" r="2.9676" gradientUnits="userSpaceOnUse">
	<stop  offset="0" style="stop-color:#FFFFFF"/>
	<stop  offset="0.9866" style="stop-color:#FFFFFF"/>
</radialGradient>
<line style="fill:none;stroke:url(#SVGID_00000050651569255997481600000000910997711093279638_);stroke-width:5;stroke-linecap:round;stroke-miterlimit:10;" x1="434.89" y1="752.55" x2="434.89" y2="754.29"/>
<radialGradient id="SVGID_00000079446902921056914480000009883419856745204668_" cx="568.4446" cy="740" r="6.8822" gradientUnits="userSpaceOnUse">
	<stop  offset="0" style="stop-color:#FFFFFF"/>
	<stop  offset="0.9866" style="stop-color:#FFFFFF"/>
</radialGradient>
<path style="fill:none;stroke:url(#SVGID_00000079446902921056914480000009883419856745204668_);stroke-width:5;stroke-linecap:round;stroke-miterlimit:10;" d="
	M564.96,745.12c0,0-1.28-10.24,7.04-10.24"/>
<radialGradient id="SVGID_00000147220056558127878270000000474583687643264437_" cx="564.8893" cy="753.4194" r="2.9676" gradientUnits="userSpaceOnUse">
	<stop  offset="0" style="stop-color:#FFFFFF"/>
	<stop  offset="0.9866" style="stop-color:#FFFFFF"/>
</radialGradient>
<line style="fill:none;stroke:url(#SVGID_00000147220056558127878270000000474583687643264437_);stroke-width:5;stroke-linecap:round;stroke-miterlimit:10;" x1="564.89" y1="752.55" x2="564.89" y2="754.29"/>
<radialGradient id="SVGID_00000142155830814455440150000014743396217258135455_" cx="643.75" cy="740.6901" r="8.5328" gradientUnits="userSpaceOnUse">
	<stop  offset="0" style="stop-color:#FFFFFF"/>
	<stop  offset="0.9866" style="stop-color:#FFFFFF"/>
</radialGradient>
<path style="fill:none;stroke:url(#SVGID_00000142155830814455440150000014743396217258135455_);stroke-width:5;stroke-linecap:round;stroke-miterlimit:10;" d="
	M637.5,746.5c0.76-1.68,2.25-4.41,5-7c2.84-2.66,5.75-3.98,7.5-4.62"/>
<radialGradient id="SVGID_00000148653124190638347830000017364916849319366313_" cx="633.8893" cy="753.4194" r="2.9676" gradientUnits="userSpaceOnUse">
	<stop  offset="0" style="stop-color:#FFFFFF"/>
	<stop  offset="0.9866" style="stop-color:#FFFFFF"/>
</radialGradient>
<line style="fill:none;stroke:url(#SVGID_00000148653124190638347830000017364916849319366313_);stroke-width:5;stroke-linecap:round;stroke-miterlimit:10;" x1="633.89" y1="752.55" x2="633.89" y2="754.29"/>
<radialGradient id="SVGID_00000057858020233223110820000006302202251981492921_" cx="764.75" cy="740.6901" r="8.5328" gradientUnits="userSpaceOnUse">
	<stop  offset="0" style="stop-color:#FFFFFF"/>
	<stop  offset="0.9866" style="stop-color:#FFFFFF"/>
</radialGradient>
<path style="fill:none;stroke:url(#SVGID_00000057858020233223110820000006302202251981492921_);stroke-width:5;stroke-linecap:round;stroke-miterlimit:10;" d="
	M758.5,746.5c0.76-1.68,2.25-4.41,5-7c2.84-2.66,5.75-3.98,7.5-4.62"/>
<radialGradient id="SVGID_00000003783763232931193590000018009842407607993022_" cx="754.8893" cy="753.4194" r="2.9676" gradientUnits="userSpaceOnUse">
	<stop  offset="0" style="stop-color:#FFFFFF"/>
	<stop  offset="0.9866" style="stop-color:#FFFFFF"/>
</radialGradient>
<line style="fill:none;stroke:url(#SVGID_00000003783763232931193590000018009842407607993022_);stroke-width:5;stroke-linecap:round;stroke-miterlimit:10;" x1="754.89" y1="752.55" x2="754.89" y2="754.29"/>
<g>
	<g>
		<path class="st94" d="M215.77,684.01c-3.5,0.42-6.93,1.33-10.17,2.72c-2.67-2.9-5.81-5.35-9.24-7.27
			c-2.84-1.59-5.88-2.81-9.03-3.63c-1.41,2.93-2.45,6.04-3.07,9.23c-0.68,3.46-0.87,7.01-0.56,10.51c-3.58,1.64-6.88,3.87-9.77,6.54
			c-2.39,2.21-4.49,4.72-6.24,7.47c2.35,2.25,4.99,4.2,7.83,5.77c3.08,1.71,6.39,3,9.83,3.78c0.46,3.91,1.55,7.74,3.2,11.31
			c1.36,2.95,3.1,5.73,5.17,8.24c2.86-1.54,5.53-3.45,7.91-5.67c2.58-2.4,4.83-5.16,6.63-8.18c3.86,0.77,7.84,0.91,11.75,0.45
			c3.23-0.38,6.41-1.18,9.44-2.37c-0.58-3.2-1.57-6.33-2.94-9.27c-1.48-3.2-3.41-6.18-5.73-8.84c1.93-3.43,3.29-7.17,4.06-11.04
			c0.63-3.19,0.86-6.46,0.66-9.71C222.28,683.64,219,683.62,215.77,684.01z"/>
		<path class="st94" d="M193.22,741.24l-1.04-1.26c-2.17-2.63-4-5.55-5.45-8.68c-1.56-3.38-2.63-6.92-3.19-10.54
			c-3.12-0.83-6.14-2.06-9-3.65c-3-1.67-5.77-3.71-8.24-6.08l-1.18-1.13l0.88-1.38c1.83-2.88,4.04-5.53,6.57-7.86
			c2.74-2.53,5.77-4.65,9.04-6.29c-0.17-3.22,0.06-6.48,0.69-9.69c0.66-3.37,1.74-6.64,3.23-9.72l0.71-1.48l1.59,0.41
			c3.31,0.85,6.51,2.14,9.51,3.82c3.25,1.82,6.2,4.05,8.77,6.65c3.01-1.16,6.17-1.94,9.42-2.34l0,0c3.41-0.42,6.86-0.39,10.24,0.07
			l1.62,0.22l0.1,1.63c0.21,3.41-0.02,6.85-0.69,10.22c-0.73,3.66-1.94,7.15-3.61,10.4c2.03,2.51,3.76,5.27,5.13,8.24
			c1.45,3.11,2.49,6.4,3.1,9.76l0.29,1.61l-1.52,0.6c-3.17,1.25-6.52,2.09-9.94,2.5c-3.7,0.44-7.4,0.36-11.01-0.22
			c-1.76,2.71-3.86,5.2-6.25,7.43c-2.51,2.34-5.31,4.35-8.33,5.96L193.22,741.24z M170.3,709.28c1.9,1.66,3.97,3.11,6.19,4.34
			c2.94,1.64,6.07,2.84,9.3,3.58l1.38,0.32l0.16,1.4c0.43,3.67,1.45,7.28,3.03,10.71c1.06,2.3,2.36,4.48,3.87,6.49
			c2.16-1.29,4.19-2.82,6.04-4.54c2.47-2.29,4.58-4.9,6.28-7.74l0.73-1.21l1.38,0.28c3.62,0.73,7.37,0.87,11.12,0.42
			c2.52-0.3,4.99-0.86,7.37-1.67c-0.56-2.45-1.38-4.85-2.45-7.15c-1.42-3.05-3.24-5.87-5.42-8.37l-0.93-1.06l0.69-1.23
			c1.81-3.22,3.1-6.74,3.84-10.45c0.49-2.49,0.72-5.01,0.69-7.53c-2.51-0.22-5.04-0.18-7.56,0.12h0c-3.35,0.41-6.58,1.27-9.63,2.57
			l-1.3,0.55l-0.96-1.04c-2.51-2.72-5.45-5.04-8.75-6.88c-2.21-1.24-4.54-2.24-6.95-2.98c-0.99,2.32-1.73,4.74-2.22,7.22
			c-0.65,3.3-0.83,6.65-0.53,9.95l0.13,1.41l-1.28,0.59c-3.36,1.54-6.47,3.63-9.25,6.19C173.41,705.32,171.74,707.22,170.3,709.28z"
			/>
	</g>
	<g>
		<path class="st77" d="M215.77,684.01c-3.5,0.42-6.93,1.33-10.17,2.72c-2.67-2.9-5.81-5.35-9.24-7.27
			c-2.84-1.59-5.88-2.81-9.03-3.63c-1.41,2.93-2.45,6.04-3.07,9.23c-0.68,3.46-0.87,7.01-0.56,10.51c-3.58,1.64-6.88,3.87-9.77,6.54
			c-2.39,2.21-4.49,4.72-6.24,7.47c2.35,2.25,4.99,4.2,7.83,5.77c3.08,1.71,6.39,3,9.83,3.78c0.46,3.91,1.55,7.74,3.2,11.31
			c1.36,2.95,3.1,5.73,5.17,8.24c2.86-1.54,5.53-3.45,7.91-5.67c2.58-2.4,4.83-5.16,6.63-8.18c3.86,0.77,7.84,0.91,11.75,0.45
			c3.23-0.38,6.41-1.18,9.44-2.37c-0.58-3.2-1.57-6.33-2.94-9.27c-1.48-3.2-3.41-6.18-5.73-8.84c1.93-3.43,3.29-7.17,4.06-11.04
			c0.63-3.19,0.86-6.46,0.66-9.71C222.28,683.64,219,683.62,215.77,684.01z"/>
		<path class="st1" d="M193.22,741.24l-1.04-1.26c-2.17-2.63-4-5.55-5.45-8.68c-1.56-3.38-2.63-6.92-3.19-10.54
			c-3.12-0.83-6.14-2.06-9-3.65c-3-1.67-5.77-3.71-8.24-6.08l-1.18-1.13l0.88-1.38c1.83-2.88,4.04-5.53,6.57-7.86
			c2.74-2.53,5.77-4.65,9.04-6.29c-0.17-3.22,0.06-6.48,0.69-9.69c0.66-3.37,1.74-6.64,3.23-9.72l0.71-1.48l1.59,0.41
			c3.31,0.85,6.51,2.14,9.51,3.82c3.25,1.82,6.2,4.05,8.77,6.65c3.01-1.16,6.17-1.94,9.42-2.34l0,0c3.41-0.42,6.86-0.39,10.24,0.07
			l1.62,0.22l0.1,1.63c0.21,3.41-0.02,6.85-0.69,10.22c-0.73,3.66-1.94,7.15-3.61,10.4c2.03,2.51,3.76,5.27,5.13,8.24
			c1.45,3.11,2.49,6.4,3.1,9.76l0.29,1.61l-1.52,0.6c-3.17,1.25-6.52,2.09-9.94,2.5c-3.7,0.44-7.4,0.36-11.01-0.22
			c-1.76,2.71-3.86,5.2-6.25,7.43c-2.51,2.34-5.31,4.35-8.33,5.96L193.22,741.24z M170.3,709.28c1.9,1.66,3.97,3.11,6.19,4.34
			c2.94,1.64,6.07,2.84,9.3,3.58l1.38,0.32l0.16,1.4c0.43,3.67,1.45,7.28,3.03,10.71c1.06,2.3,2.36,4.48,3.87,6.49
			c2.16-1.29,4.19-2.82,6.04-4.54c2.47-2.29,4.58-4.9,6.28-7.74l0.73-1.21l1.38,0.28c3.62,0.73,7.37,0.87,11.12,0.42
			c2.52-0.3,4.99-0.86,7.37-1.67c-0.56-2.45-1.38-4.85-2.45-7.15c-1.42-3.05-3.24-5.87-5.42-8.37l-0.93-1.06l0.69-1.23
			c1.81-3.22,3.1-6.74,3.84-10.45c0.49-2.49,0.72-5.01,0.69-7.53c-2.51-0.22-5.04-0.18-7.56,0.12h0c-3.35,0.41-6.58,1.27-9.63,2.57
			l-1.3,0.55l-0.96-1.04c-2.51-2.72-5.45-5.04-8.75-6.88c-2.21-1.24-4.54-2.24-6.95-2.98c-0.99,2.32-1.73,4.74-2.22,7.22
			c-0.65,3.3-0.83,6.65-0.53,9.95l0.13,1.41l-1.28,0.59c-3.36,1.54-6.47,3.63-9.25,6.19C173.41,705.32,171.74,707.22,170.3,709.28z"
			/>
	</g>
</g>
</svg>
